<svg width="1440" height="1024" viewBox="0 0 1440 1024" fill="none" xmlns="http://www.w3.org/2000/svg">
<g clip-path="url(#clip0_498_309)">
<rect width="1440" height="1024" fill="#1F86F1"/>
<path d="M343.824 281C334.626 286.31 323.617 289.111 310.795 289.403L297.7 272.394C306.118 272.034 311.769 271.022 314.653 269.357C316.952 268.03 317.81 266.41 317.225 264.497C316.68 262.562 314.77 260.65 311.496 258.76L248.596 222.448L274.317 207.599L343.648 247.623C352.885 252.956 357.464 258.569 357.386 264.464C357.308 270.313 352.787 275.825 343.824 281ZM435.247 228.221C428.505 232.113 420.906 235.016 412.449 236.928C403.992 238.84 395.262 239.763 386.26 239.695C377.218 239.605 368.41 238.548 359.837 236.523C351.263 234.453 343.507 231.416 336.57 227.411C329.633 223.406 324.392 218.94 320.845 214.013C317.299 209.041 315.467 203.956 315.35 198.759C315.194 193.54 316.773 188.489 320.085 183.607C323.398 178.724 328.425 174.337 335.167 170.445C341.909 166.553 349.509 163.65 357.966 161.738C366.423 159.826 375.172 158.914 384.214 159.004C393.216 159.072 402.004 160.141 410.578 162.21C419.152 164.235 426.907 167.25 433.844 171.255C440.781 175.26 446.023 179.748 449.57 184.72C453.116 189.647 454.967 194.721 455.123 199.94C455.24 205.138 453.642 210.177 450.33 215.059C447.017 219.942 441.99 224.329 435.247 228.221ZM410.461 213.912C413.618 212.09 415.898 210.099 417.301 207.939C418.665 205.756 419.152 203.495 418.762 201.155C418.373 198.816 417.125 196.476 415.021 194.136C412.916 191.751 409.955 189.456 406.135 187.251C402.316 185.046 398.36 183.348 394.268 182.155C390.176 180.918 386.104 180.187 382.051 179.962C377.998 179.737 374.1 180.029 370.359 180.839C366.579 181.627 363.11 182.932 359.954 184.754C356.797 186.576 354.536 188.579 353.172 190.761C351.769 192.921 351.263 195.171 351.652 197.511C352.042 199.85 353.289 202.213 355.394 204.598C357.498 206.937 360.46 209.21 364.279 211.415C368.099 213.62 372.054 215.341 376.146 216.578C380.238 217.771 384.311 218.479 388.364 218.704C392.417 218.929 396.334 218.648 400.114 217.861C403.855 217.051 407.304 215.734 410.461 213.912ZM497.044 190.386L400.588 134.702L426.31 119.853L522.765 175.537L497.044 190.386ZM545.683 162.307L449.227 106.623L474.949 91.774L563.337 102.843L509.556 71.7953L535.277 56.9463L631.733 112.63L606.011 127.479L517.623 116.41L571.404 147.458L545.683 162.307ZM663.675 94.19L619.888 68.9117L607.417 76.1112L594.045 68.3917L634.229 45.1932L647.601 52.9127L635.13 60.1122L678.917 85.3906L663.675 94.19ZM720.876 62.4477C716.881 64.7542 712.377 66.4741 707.366 67.6074C702.354 68.7406 697.181 69.2873 691.846 69.2473C686.488 69.1939 681.269 68.5673 676.188 67.3674C671.107 66.1408 666.512 64.3409 662.401 61.9677C658.29 59.5946 655.184 56.9481 653.082 54.0283C650.981 51.0818 649.895 48.0686 649.826 44.9888C649.733 41.8957 650.669 38.9026 652.632 36.0094C654.595 33.1163 657.574 30.5165 661.569 28.2099C665.565 25.9034 670.068 24.1835 675.08 23.0503C680.091 21.917 685.276 21.3771 690.634 21.4304C695.969 21.4704 701.177 22.1037 706.257 23.3303C711.338 24.5302 715.934 26.3167 720.045 28.6899C724.156 31.0631 727.262 33.7229 729.363 36.6694C731.465 39.5892 732.562 42.5957 732.654 45.6888C732.724 48.7686 731.777 51.7551 729.814 54.6482C727.851 57.5414 724.871 60.1412 720.876 62.4477ZM706.188 53.9683C708.059 52.8883 709.41 51.7084 710.241 50.4285C711.049 49.1352 711.338 47.7953 711.107 46.4088C710.876 45.0222 710.137 43.6356 708.89 42.249C707.643 40.8358 705.888 39.4759 703.625 38.1693C701.361 36.8627 699.017 35.8561 696.592 35.1495C694.167 34.4162 691.754 33.9829 689.352 33.8496C686.95 33.7162 684.641 33.8896 682.424 34.3695C680.184 34.8362 678.128 35.6095 676.258 36.6894C674.387 37.7693 673.047 38.9559 672.239 40.2492C671.408 41.5291 671.107 42.8623 671.338 44.2489C671.569 45.6355 672.308 47.0354 673.555 48.4486C674.803 49.8352 676.558 51.1818 678.821 52.4884C681.084 53.7949 683.428 54.8149 685.853 55.5482C688.278 56.2548 690.692 56.6748 693.093 56.8081C695.495 56.9414 697.816 56.7747 700.056 56.3081C702.274 55.8281 704.317 55.0482 706.188 53.9683ZM398.161 325.466L359.848 303.347L348.936 309.647L337.235 302.892L372.397 282.594L384.097 289.348L373.185 295.648L411.499 317.766L398.161 325.466ZM428.039 308.218L378.025 279.345L391.362 271.645L410.458 282.669L423.31 275.25L404.214 264.226L417.551 256.526L467.565 285.399L454.228 293.099L435.01 282.004L422.158 289.424L441.376 300.518L428.039 308.218ZM501.554 266.897C498.058 268.916 494.117 270.421 489.732 271.412C485.347 272.404 480.821 272.882 476.153 272.847C471.464 272.8 466.897 272.252 462.452 271.202C458.006 270.129 453.985 268.554 450.388 266.477C446.791 264.401 444.073 262.085 442.234 259.53C440.395 256.952 439.445 254.316 439.385 251.621C439.304 248.914 440.122 246.295 441.84 243.764C443.558 241.232 446.164 238.958 449.66 236.939C453.156 234.921 457.097 233.416 461.482 232.425C465.867 231.433 470.404 230.961 475.092 231.007C479.76 231.042 484.317 231.596 488.762 232.67C493.208 233.72 497.229 235.283 500.826 237.359C504.423 239.436 507.141 241.763 508.98 244.341C510.819 246.896 511.779 249.527 511.86 252.233C511.92 254.928 511.092 257.541 509.374 260.073C507.656 262.604 505.05 264.879 501.554 266.897ZM488.702 259.478C490.338 258.533 491.521 257.501 492.248 256.381C492.955 255.249 493.208 254.077 493.006 252.863C492.804 251.65 492.157 250.437 491.066 249.224C489.975 247.987 488.439 246.797 486.459 245.654C484.478 244.511 482.427 243.63 480.305 243.012C478.183 242.37 476.072 241.991 473.97 241.874C471.869 241.757 469.848 241.909 467.908 242.329C465.948 242.737 464.149 243.414 462.512 244.359C460.876 245.304 459.704 246.342 458.996 247.474C458.269 248.594 458.006 249.76 458.208 250.974C458.41 252.187 459.057 253.412 460.148 254.648C461.239 255.862 462.775 257.04 464.755 258.183C466.736 259.326 468.787 260.219 470.909 260.86C473.031 261.479 475.142 261.846 477.244 261.963C479.345 262.079 481.376 261.934 483.336 261.525C485.276 261.105 487.065 260.423 488.702 259.478ZM553.814 236.728C547.186 240.554 540.598 242.549 534.051 242.712C527.483 242.864 521.138 241.172 515.015 237.637L482.643 218.949L495.98 211.249L524.351 227.628C527.948 229.705 530.929 230.854 533.293 231.075C535.658 231.297 538.133 230.661 540.72 229.168C543.306 227.675 544.407 226.246 544.023 224.881C543.64 223.516 541.649 221.795 538.052 219.719L509.681 203.34L523.018 195.64L555.39 214.329C561.513 217.864 564.443 221.527 564.181 225.318C563.918 229.086 560.462 232.889 553.814 236.728ZM597.131 211.721C594.989 212.957 592.766 214.042 590.462 214.976C588.179 215.921 585.915 216.714 583.672 217.355C581.45 217.985 579.348 218.487 577.368 218.86C575.367 219.222 573.599 219.449 572.063 219.543L567.334 209.184C568.83 209.02 570.386 208.799 572.002 208.519C573.639 208.227 575.256 207.877 576.852 207.469C578.449 207.06 579.954 206.6 581.369 206.086C582.803 205.561 584.066 204.984 585.158 204.354C586.168 203.771 586.896 203.211 587.34 202.674C587.785 202.137 587.936 201.618 587.795 201.117C587.633 200.603 587.168 200.125 586.4 199.682C585.633 199.238 584.774 198.964 583.824 198.859C582.874 198.731 581.722 198.743 580.368 198.894C579.015 199.046 577.358 199.314 575.397 199.699C573.437 200.084 571.073 200.562 568.304 201.134C566.183 201.566 564.101 201.869 562.06 202.044C560.019 202.196 558.049 202.201 556.15 202.061C554.27 201.91 552.482 201.601 550.784 201.134C549.107 200.656 547.561 200.008 546.147 199.192C544.166 198.048 542.671 196.707 541.661 195.167C540.63 193.615 540.145 191.97 540.206 190.232C540.266 188.494 540.933 186.756 542.206 185.018C543.5 183.268 545.47 181.629 548.117 180.1C549.814 179.12 551.795 178.187 554.058 177.301C556.342 176.402 558.706 175.621 561.151 174.956C563.596 174.291 565.92 173.812 568.123 173.521L573.579 182.76C571.922 183.017 570.295 183.361 568.699 183.793C567.082 184.213 565.587 184.691 564.212 185.228C562.818 185.753 561.606 186.312 560.575 186.907C559.585 187.479 558.857 188.039 558.393 188.587C557.908 189.124 557.706 189.637 557.786 190.127C557.847 190.606 558.221 191.043 558.908 191.44C559.352 191.696 559.837 191.871 560.363 191.965C560.888 192.035 561.505 192.029 562.212 191.947C562.939 191.854 563.828 191.69 564.879 191.457C565.93 191.224 567.213 190.938 568.729 190.6C572.487 189.76 575.882 189.083 578.914 188.57C581.945 188.057 584.723 187.782 587.249 187.747C589.775 187.689 592.139 187.922 594.342 188.447C596.545 188.972 598.697 189.841 600.798 191.055C604.153 192.991 606.224 195.12 607.012 197.442C607.821 199.752 607.386 202.126 605.709 204.564C604.032 207.002 601.172 209.388 597.131 211.721ZM616.874 199.203L587.229 158.571L599.596 151.432L669.979 168.545L655.612 176.84L644.305 173.778L625.937 184.382L631.241 190.909L616.874 199.203ZM618.783 175.002L628.058 169.648L611.539 165.466L618.783 175.002ZM674.675 165.834L624.661 136.961L637.998 129.262L683.829 135.001L655.943 118.903L669.28 111.203L719.294 140.076L705.957 147.776L660.126 142.036L688.012 158.135L674.675 165.834ZM731.154 133.229L681.14 104.356L696.538 95.4666C700.095 93.4134 704.035 91.8735 708.36 90.8469C712.684 89.8203 717.13 89.307 721.697 89.307C726.284 89.2954 730.74 89.8028 735.064 90.8294C739.389 91.8327 743.309 93.3493 746.825 95.3791C750.341 97.409 752.979 99.6664 754.737 102.151C756.495 104.636 757.354 107.197 757.313 109.833C757.293 112.458 756.384 115.025 754.585 117.533C752.787 120.018 750.109 122.287 746.552 124.34L731.154 133.229ZM732.549 118.635L733.034 118.355C734.852 117.305 736.196 116.168 737.065 114.943C737.934 113.695 738.338 112.423 738.277 111.128C738.217 109.81 737.691 108.515 736.701 107.243C735.711 105.972 734.256 104.782 732.336 103.674C730.437 102.577 728.386 101.743 726.183 101.171C723.98 100.6 721.737 100.296 719.454 100.261C717.191 100.215 714.988 100.448 712.846 100.961C710.704 101.451 708.724 102.221 706.905 103.271L706.42 103.551L732.549 118.635ZM792.617 98.8669C790.475 100.103 788.252 101.188 785.948 102.122C783.665 103.067 781.401 103.86 779.158 104.502C776.935 105.131 774.834 105.633 772.853 106.006C770.853 106.368 769.085 106.596 767.549 106.689L762.82 96.3295C764.316 96.1662 765.872 95.9446 767.488 95.6646C769.125 95.3729 770.742 95.023 772.338 94.6147C773.935 94.2063 775.44 93.7455 776.855 93.2322C778.289 92.7073 779.552 92.1298 780.644 91.4999C781.654 90.9166 782.381 90.3566 782.826 89.82C783.271 89.2833 783.422 88.7642 783.281 88.2626C783.119 87.7493 782.654 87.271 781.886 86.8277C781.118 86.3844 780.26 86.1102 779.31 86.0052C778.36 85.8769 777.208 85.8886 775.854 86.0402C774.5 86.1919 772.843 86.4602 770.883 86.8452C768.923 87.2301 766.559 87.7084 763.79 88.2801C761.668 88.7117 759.587 89.015 757.546 89.19C755.505 89.3417 753.535 89.3475 751.635 89.2075C749.756 89.0558 747.968 88.7467 746.27 88.2801C744.593 87.8018 743.047 87.1543 741.633 86.3377C739.652 85.1944 738.157 83.8529 737.146 82.313C736.116 80.7614 735.631 79.1165 735.691 77.3783C735.752 75.6401 736.419 73.9018 737.692 72.1636C738.985 70.4137 740.956 68.7747 743.603 67.2464C745.3 66.2665 747.281 65.3332 749.544 64.4466C751.827 63.5483 754.192 62.7667 756.637 62.1018C759.082 61.4368 761.406 60.9585 763.608 60.6669L769.065 69.9063C767.407 70.1629 765.781 70.5071 764.184 70.9387C762.568 71.3587 761.072 71.837 759.698 72.3736C758.304 72.8986 757.091 73.4585 756.061 74.0535C755.071 74.6251 754.343 75.1851 753.878 75.7334C753.393 76.27 753.191 76.7833 753.272 77.2733C753.333 77.7516 753.707 78.1891 754.394 78.5857C754.838 78.8423 755.323 79.0173 755.849 79.1107C756.374 79.1807 756.99 79.1748 757.698 79.0932C758.425 78.9998 759.314 78.8365 760.365 78.6032C761.416 78.3699 762.699 78.0841 764.215 77.7458C767.973 76.9058 771.368 76.2292 774.399 75.7159C777.43 75.2026 780.209 74.9284 782.735 74.8934C785.261 74.8351 787.625 75.0684 789.828 75.5934C792.031 76.1184 794.183 76.9875 796.284 78.2007C799.639 80.1373 801.71 82.2663 802.498 84.5878C803.306 86.8977 802.872 89.2717 801.195 91.7098C799.518 94.148 796.658 96.5337 792.617 98.8669ZM513.835 377.64C510.838 379.37 507.461 380.66 503.702 381.51C499.943 382.36 496.063 382.77 492.062 382.74C488.044 382.7 484.129 382.23 480.319 381.33C476.508 380.41 473.061 379.06 469.978 377.28C466.895 375.5 464.565 373.515 462.989 371.325C461.413 369.116 460.599 366.856 460.547 364.546C460.478 362.226 461.179 359.981 462.651 357.811C464.124 355.641 466.358 353.692 469.355 351.962C472.351 350.232 475.729 348.942 479.487 348.092C483.246 347.242 487.135 346.837 491.153 346.877C495.154 346.907 499.06 347.382 502.871 348.302C506.681 349.202 510.128 350.542 513.211 352.322C516.294 354.102 518.624 356.096 520.2 358.306C521.776 360.496 522.599 362.751 522.668 365.071C522.72 367.381 522.01 369.62 520.538 371.79C519.066 373.96 516.831 375.91 513.835 377.64ZM502.819 371.28C504.222 370.47 505.235 369.585 505.858 368.626C506.465 367.656 506.681 366.651 506.508 365.611C506.335 364.571 505.78 363.531 504.845 362.491C503.91 361.431 502.593 360.411 500.896 359.431C499.199 358.451 497.44 357.696 495.622 357.166C493.803 356.616 491.993 356.291 490.192 356.191C488.39 356.091 486.658 356.221 484.995 356.581C483.315 356.931 481.774 357.511 480.371 358.321C478.968 359.131 477.963 360.021 477.357 360.991C476.733 361.951 476.508 362.951 476.681 363.991C476.855 365.031 477.409 366.081 478.344 367.141C479.28 368.181 480.596 369.191 482.293 370.17C483.991 371.15 485.749 371.915 487.568 372.465C489.386 372.995 491.196 373.31 492.998 373.41C494.799 373.51 496.54 373.385 498.22 373.035C499.883 372.675 501.416 372.09 502.819 371.28ZM541.3 360.824L498.431 336.076L524.1 321.257L534.129 327.047L517.553 336.616V333.916L528.569 340.276L523.892 340.276L539.325 331.366L549.354 337.156L533.921 346.065V343.366L552.732 354.225L541.3 360.824ZM616.612 319.026C606.67 324.766 596.789 327.758 586.968 328.003C577.117 328.231 567.599 325.693 558.414 320.391L509.855 292.358L529.861 280.809L572.418 305.377C577.814 308.492 582.285 310.216 585.831 310.548C589.378 310.881 593.091 309.927 596.971 307.687C600.85 305.447 602.502 303.304 601.927 301.256C601.351 299.209 598.365 296.628 592.969 293.513L550.412 268.945L570.418 257.395L618.977 285.429C628.161 290.731 632.556 296.225 632.162 301.912C631.768 307.565 626.585 313.269 616.612 319.026ZM681.587 281.516C678.374 283.371 675.04 284.999 671.585 286.398C668.159 287.816 664.764 289.006 661.4 289.968C658.066 290.913 654.913 291.666 651.943 292.226C648.942 292.768 646.29 293.109 643.986 293.249L636.893 277.71C639.136 277.465 641.47 277.133 643.895 276.713C646.35 276.275 648.775 275.75 651.17 275.138C653.564 274.525 655.823 273.834 657.944 273.064C660.097 272.277 661.991 271.411 663.628 270.466C665.143 269.591 666.235 268.751 666.901 267.946C667.568 267.141 667.796 266.362 667.583 265.61C667.341 264.84 666.644 264.122 665.492 263.457C664.34 262.793 663.052 262.381 661.627 262.224C660.203 262.031 658.475 262.049 656.444 262.276C654.413 262.504 651.928 262.906 648.987 263.484C646.047 264.061 642.501 264.779 638.348 265.636C635.165 266.284 632.043 266.738 628.982 267.001C625.92 267.228 622.965 267.237 620.116 267.027C617.297 266.8 614.614 266.336 612.068 265.636C609.552 264.919 607.233 263.947 605.111 262.723C602.141 261.008 599.898 258.995 598.382 256.685C596.836 254.358 596.109 251.891 596.2 249.283C596.291 246.676 597.291 244.069 599.201 241.461C601.141 238.837 604.096 236.378 608.067 234.086C610.613 232.616 613.583 231.216 616.978 229.886C620.404 228.538 623.95 227.366 627.618 226.369C631.285 225.371 634.771 224.654 638.075 224.216L646.259 238.075C643.774 238.46 641.334 238.977 638.939 239.624C636.514 240.254 634.271 240.971 632.21 241.776C630.118 242.564 628.3 243.404 626.754 244.296C625.269 245.154 624.177 245.994 623.48 246.816C622.753 247.621 622.45 248.391 622.571 249.126C622.662 249.843 623.223 250.5 624.253 251.095C624.92 251.479 625.647 251.742 626.436 251.882C627.224 251.987 628.148 251.978 629.209 251.856C630.3 251.716 631.634 251.471 633.21 251.121C634.786 250.771 636.711 250.342 638.985 249.835C644.622 248.575 649.715 247.56 654.262 246.79C658.808 246.02 662.976 245.609 666.765 245.556C670.554 245.469 674.1 245.819 677.404 246.606C680.708 247.394 683.937 248.697 687.089 250.517C692.121 253.422 695.228 256.615 696.41 260.098C697.622 263.562 696.971 267.123 694.455 270.781C691.939 274.438 687.65 278.017 681.587 281.516ZM721.977 256.519L646.956 213.21L691.332 187.591L708.883 197.723L684.512 211.792L695.606 218.197L718.886 204.758L736.436 214.89L713.157 228.329L724.433 234.838L748.803 220.769L766.353 230.901L721.977 256.519ZM782.896 221.351L707.875 178.041L737.52 160.927C742.794 157.882 748.326 155.774 754.116 154.601C759.875 153.411 765.604 153.219 771.302 154.024C776.971 154.811 782.32 156.657 787.352 159.562C790.929 161.627 793.642 163.841 795.491 166.203C797.31 168.548 798.249 170.98 798.31 173.5C798.37 175.985 797.507 178.513 795.718 181.086L848.46 183.501L823.09 198.147L776.94 194.761L776.895 194.787L802.902 209.801L782.896 221.351ZM760.345 185.233L763.436 183.448C765.983 181.978 767.801 180.578 768.892 179.248C770.014 177.901 770.393 176.632 770.029 175.442C769.665 174.218 768.589 173.089 766.801 172.056C764.043 170.464 760.981 169.834 757.617 170.167C754.252 170.464 750.675 171.706 746.886 173.894L743.795 175.679L760.345 185.233ZM876.422 169.038C873.209 170.893 869.875 172.521 866.419 173.92C862.994 175.338 859.599 176.528 856.235 177.49C852.9 178.435 849.748 179.188 846.777 179.748C843.776 180.29 841.124 180.631 838.821 180.771L831.728 165.232C833.971 164.987 836.305 164.655 838.73 164.235C841.185 163.797 843.61 163.272 846.004 162.66C848.399 162.047 850.657 161.356 852.779 160.586C854.931 159.799 856.826 158.933 858.462 157.988C859.978 157.113 861.069 156.273 861.736 155.468C862.403 154.663 862.63 153.884 862.418 153.132C862.176 152.362 861.478 151.644 860.327 150.979C859.175 150.314 857.886 149.903 856.462 149.746C855.037 149.553 853.309 149.571 851.279 149.798C849.248 150.026 846.762 150.428 843.822 151.006C840.882 151.583 837.335 152.301 833.183 153.158C830 153.806 826.878 154.26 823.816 154.523C820.755 154.75 817.799 154.759 814.95 154.549C812.131 154.322 809.449 153.858 806.902 153.158C804.387 152.441 802.068 151.469 799.946 150.244C796.975 148.53 794.732 146.517 793.217 144.207C791.671 141.88 790.943 139.413 791.034 136.805C791.125 134.198 792.126 131.591 794.035 128.983C795.975 126.359 798.931 123.9 802.901 121.608C805.448 120.138 808.418 118.738 811.813 117.408C815.238 116.06 818.785 114.888 822.452 113.891C826.12 112.893 829.606 112.176 832.91 111.738L841.094 125.597C838.608 125.982 836.168 126.499 833.774 127.146C831.349 127.776 829.106 128.493 827.044 129.298C824.953 130.086 823.134 130.926 821.588 131.818C820.103 132.676 819.012 133.516 818.315 134.338C817.587 135.143 817.284 135.913 817.405 136.648C817.496 137.365 818.057 138.022 819.088 138.617C819.755 139.001 820.482 139.264 821.27 139.404C822.058 139.509 822.983 139.5 824.044 139.378C825.135 139.238 826.469 138.993 828.045 138.643C829.621 138.293 831.546 137.864 833.819 137.357C839.457 136.097 844.549 135.082 849.096 134.312C853.643 133.542 857.811 133.131 861.6 133.078C865.389 132.991 868.935 133.341 872.239 134.128C875.543 134.915 878.771 136.219 881.924 138.039C886.955 140.944 890.062 144.137 891.244 147.62C892.457 151.084 891.805 154.645 889.289 158.303C886.773 161.96 882.484 165.538 876.422 169.038Z" fill="url(#paint0_linear_498_309)" fill-opacity="0.15"/>
<path d="M-211.176 447C-220.374 452.31 -231.383 455.111 -244.205 455.403L-257.3 438.394C-248.882 438.034 -243.231 437.022 -240.347 435.357C-238.048 434.03 -237.19 432.41 -237.775 430.497C-238.32 428.562 -240.23 426.65 -243.504 424.76L-306.404 388.448L-280.683 373.599L-211.352 413.623C-202.115 418.956 -197.536 424.569 -197.614 430.464C-197.692 436.313 -202.213 441.825 -211.176 447ZM-119.753 394.221C-126.495 398.113 -134.094 401.016 -142.551 402.928C-151.008 404.84 -159.738 405.763 -168.74 405.695C-177.782 405.605 -186.59 404.548 -195.163 402.523C-203.737 400.453 -211.493 397.416 -218.43 393.411C-225.367 389.406 -230.608 384.94 -234.155 380.013C-237.701 375.041 -239.533 369.956 -239.65 364.759C-239.806 359.54 -238.227 354.489 -234.915 349.607C-231.602 344.724 -226.575 340.337 -219.833 336.445C-213.091 332.553 -205.491 329.65 -197.034 327.738C-188.577 325.826 -179.828 324.914 -170.786 325.004C-161.784 325.072 -152.996 326.141 -144.422 328.21C-135.848 330.235 -128.093 333.25 -121.156 337.255C-114.219 341.26 -108.977 345.748 -105.43 350.72C-101.884 355.647 -100.033 360.721 -99.8769 365.94C-99.76 371.138 -101.358 376.177 -104.67 381.059C-107.983 385.942 -113.01 390.329 -119.753 394.221ZM-144.539 379.912C-141.382 378.09 -139.102 376.099 -137.699 373.939C-136.335 371.756 -135.848 369.495 -136.238 367.155C-136.627 364.816 -137.875 362.476 -139.979 360.136C-142.084 357.751 -145.045 355.456 -148.865 353.251C-152.684 351.046 -156.64 349.348 -160.732 348.155C-164.824 346.918 -168.896 346.187 -172.949 345.962C-177.002 345.737 -180.9 346.029 -184.641 346.839C-188.421 347.627 -191.89 348.932 -195.046 350.754C-198.203 352.576 -200.464 354.579 -201.828 356.761C-203.231 358.921 -203.737 361.171 -203.348 363.511C-202.958 365.85 -201.711 368.213 -199.606 370.598C-197.502 372.937 -194.54 375.21 -190.721 377.415C-186.901 379.62 -182.946 381.341 -178.854 382.578C-174.762 383.771 -170.689 384.479 -166.636 384.704C-162.583 384.929 -158.666 384.648 -154.886 383.861C-151.145 383.051 -147.696 381.734 -144.539 379.912ZM-57.9561 356.386L-154.412 300.702L-128.69 285.853L-32.2346 341.537L-57.9561 356.386ZM-9.31722 328.307L-105.773 272.623L-80.0514 257.774L8.33709 268.843L-45.4443 237.795L-19.7227 222.946L76.733 278.63L51.0114 293.479L-37.3771 282.41L16.4043 313.458L-9.31722 328.307ZM108.675 260.19L64.8878 234.912L52.4168 242.111L39.045 234.392L79.2295 211.193L92.6012 218.913L80.1302 226.112L123.917 251.391L108.675 260.19ZM165.876 228.448C161.881 230.754 157.377 232.474 152.366 233.607C147.354 234.741 142.181 235.287 136.846 235.247C131.488 235.194 126.269 234.567 121.188 233.367C116.107 232.141 111.512 230.341 107.401 227.968C103.29 225.595 100.184 222.948 98.0822 220.028C95.9806 217.082 94.8951 214.069 94.8259 210.989C94.7335 207.896 95.6688 204.903 97.6318 202.009C99.5949 199.116 102.574 196.516 106.569 194.21C110.565 191.903 115.068 190.184 120.08 189.05C125.091 187.917 130.276 187.377 135.634 187.43C140.969 187.47 146.177 188.104 151.257 189.33C156.338 190.53 160.934 192.317 165.045 194.69C169.156 197.063 172.262 199.723 174.363 202.669C176.465 205.589 177.562 208.596 177.654 211.689C177.724 214.769 176.777 217.755 174.814 220.648C172.851 223.541 169.871 226.141 165.876 228.448ZM151.188 219.968C153.059 218.888 154.41 217.708 155.241 216.428C156.049 215.135 156.338 213.795 156.107 212.409C155.876 211.022 155.137 209.636 153.89 208.249C152.643 206.836 150.888 205.476 148.625 204.169C146.361 202.863 144.017 201.856 141.592 201.149C139.167 200.416 136.754 199.983 134.352 199.85C131.95 199.716 129.641 199.89 127.424 200.37C125.184 200.836 123.128 201.609 121.258 202.689C119.387 203.769 118.047 204.956 117.239 206.249C116.408 207.529 116.107 208.862 116.338 210.249C116.569 211.635 117.308 213.035 118.555 214.449C119.803 215.835 121.558 217.182 123.821 218.488C126.084 219.795 128.428 220.815 130.853 221.548C133.278 222.255 135.692 222.675 138.093 222.808C140.495 222.941 142.816 222.775 145.056 222.308C147.274 221.828 149.317 221.048 151.188 219.968ZM-156.839 491.466L-195.152 469.347L-206.064 475.647L-217.765 468.892L-182.603 448.594L-170.903 455.348L-181.815 461.648L-143.501 483.766L-156.839 491.466ZM-126.961 474.218L-176.975 445.345L-163.638 437.645L-144.542 448.669L-131.69 441.25L-150.786 430.226L-137.449 422.526L-87.435 451.399L-100.772 459.099L-119.99 448.004L-132.842 455.424L-113.624 466.518L-126.961 474.218ZM-53.4463 432.897C-56.9422 434.916 -60.8827 436.421 -65.2678 437.412C-69.6529 438.404 -74.1794 438.882 -78.8474 438.847C-83.5356 438.8 -88.1025 438.252 -92.5482 437.202C-96.9939 436.129 -101.015 434.554 -104.612 432.477C-108.209 430.401 -110.927 428.085 -112.766 425.53C-114.605 422.952 -115.555 420.316 -115.615 417.621C-115.696 414.914 -114.878 412.295 -113.16 409.764C-111.442 407.232 -108.836 404.958 -105.34 402.939C-101.844 400.921 -97.9033 399.416 -93.5182 398.425C-89.1331 397.433 -84.5965 396.961 -79.9083 397.007C-75.2403 397.042 -70.6835 397.596 -66.2378 398.67C-61.7921 399.72 -57.7708 401.283 -54.1738 403.359C-50.5768 405.436 -47.8589 407.763 -46.02 410.341C-44.1811 412.896 -43.2212 415.527 -43.1404 418.233C-43.0798 420.928 -43.9083 423.541 -45.6259 426.073C-47.3436 428.604 -49.9504 430.879 -53.4463 432.897ZM-66.2984 425.478C-64.6616 424.533 -63.4794 423.501 -62.752 422.381C-62.0447 421.249 -61.7921 420.077 -61.9942 418.863C-62.1962 417.65 -62.8429 416.437 -63.9341 415.224C-65.0253 413.987 -66.5611 412.797 -68.5415 411.654C-70.5218 410.511 -72.5729 409.63 -74.6947 409.012C-76.8165 408.37 -78.9282 407.991 -81.0298 407.874C-83.1314 407.757 -85.1522 407.909 -87.0921 408.329C-89.0523 408.737 -90.8508 409.414 -92.4876 410.359C-94.1244 411.304 -95.2965 412.342 -96.0037 413.474C-96.7312 414.594 -96.9939 415.76 -96.7918 416.974C-96.5898 418.187 -95.9431 419.412 -94.8519 420.648C-93.7607 421.862 -92.2249 423.04 -90.2445 424.183C-88.2642 425.326 -86.2131 426.219 -84.0913 426.86C-81.9695 427.479 -79.8578 427.846 -77.7562 427.963C-75.6546 428.079 -73.6237 427.934 -71.6635 427.525C-69.7236 427.105 -67.9352 426.423 -66.2984 425.478ZM-1.18588 402.728C-7.814 406.554 -14.4017 408.549 -20.949 408.712C-27.5165 408.864 -33.8617 407.172 -39.9847 403.637L-72.3574 384.949L-59.0203 377.249L-30.6487 393.628C-27.0517 395.705 -24.0711 396.854 -21.7068 397.075C-19.3425 397.297 -16.8671 396.661 -14.2805 395.168C-11.6939 393.675 -10.5926 392.246 -10.9765 390.881C-11.3605 389.516 -13.3509 387.795 -16.9479 385.719L-45.3195 369.34L-31.9824 361.64L0.390327 380.329C6.51326 383.864 9.44338 387.527 9.18068 391.318C8.91798 395.086 5.46246 398.889 -1.18588 402.728ZM42.1308 377.721C39.9887 378.957 37.7659 380.042 35.4622 380.976C33.1787 381.921 30.9155 382.714 28.6724 383.355C26.4496 383.985 24.348 384.487 22.3676 384.86C20.3671 385.222 18.5989 385.449 17.0631 385.543L12.3345 375.184C13.8299 375.02 15.3859 374.799 17.0025 374.519C18.6393 374.227 20.2559 373.877 21.8523 373.469C23.4487 373.06 24.9542 372.6 26.3687 372.086C27.8035 371.561 29.0665 370.984 30.1577 370.354C31.1681 369.771 31.8956 369.211 32.3401 368.674C32.7847 368.137 32.9362 367.618 32.7948 367.117C32.6331 366.603 32.1684 366.125 31.4005 365.682C30.6326 365.238 29.7737 364.964 28.824 364.859C27.8742 364.731 26.7224 364.743 25.3685 364.894C24.0145 365.046 22.3575 365.314 20.3974 365.699C18.4372 366.084 16.0729 366.562 13.3045 367.134C11.1827 367.566 9.10126 367.869 7.06029 368.044C5.01931 368.196 3.04906 368.201 1.14953 368.061C-0.729783 367.91 -2.51817 367.601 -4.21561 367.134C-5.89285 366.656 -7.43874 366.008 -8.85328 365.192C-10.8336 364.048 -12.329 362.707 -13.3394 361.167C-14.37 359.615 -14.855 357.97 -14.7943 356.232C-14.7337 354.494 -14.0669 352.756 -12.7938 351.018C-11.5005 349.268 -9.53024 347.629 -6.88303 346.1C-5.18558 345.12 -3.20523 344.187 -0.941964 343.301C1.34151 342.402 3.70581 341.621 6.15094 340.956C8.59607 340.291 10.92 339.812 13.1226 339.521L18.5787 348.76C16.9216 349.017 15.2949 349.361 13.6985 349.793C12.0819 350.213 10.5865 350.691 9.21241 351.228C7.81807 351.753 6.60561 352.312 5.57502 352.907C4.58484 353.479 3.85736 354.039 3.39259 354.587C2.9076 355.124 2.70552 355.637 2.78636 356.127C2.84698 356.606 3.22082 357.043 3.90788 357.44C4.35245 357.696 4.83744 357.871 5.36284 357.965C5.88824 358.035 6.50457 358.029 7.21184 357.947C7.93932 357.854 8.82846 357.69 9.87926 357.457C10.9301 357.224 12.2132 356.938 13.7288 356.6C17.4875 355.76 20.8824 355.083 23.9135 354.57C26.9447 354.057 29.7232 353.782 32.2492 353.747C34.7752 353.689 37.1395 353.922 39.3421 354.447C41.5447 354.972 43.6969 355.841 45.7985 357.055C49.1529 358.991 51.2242 361.12 52.0123 363.442C52.8206 365.752 52.3862 368.126 50.7089 370.564C49.0317 373.002 46.1723 375.388 42.1308 377.721ZM61.8735 365.203L32.2288 324.571L44.5959 317.432L114.979 334.545L100.612 342.84L89.3055 339.778L70.9367 350.382L76.2412 356.909L61.8735 365.203ZM63.7831 341.002L73.0585 335.648L56.5387 331.466L63.7831 341.002ZM119.675 331.834L69.6612 302.961L82.9983 295.262L128.829 301.001L100.943 284.903L114.28 277.203L164.294 306.076L150.957 313.776L105.126 308.036L133.012 324.135L119.675 331.834ZM176.154 299.229L126.14 270.356L141.538 261.467C145.095 259.413 149.035 257.874 153.36 256.847C157.684 255.82 162.13 255.307 166.697 255.307C171.284 255.295 175.74 255.803 180.064 256.829C184.389 257.833 188.309 259.349 191.825 261.379C195.341 263.409 197.979 265.666 199.737 268.151C201.495 270.636 202.354 273.197 202.313 275.833C202.293 278.458 201.384 281.025 199.585 283.533C197.787 286.018 195.109 288.287 191.552 290.34L176.154 299.229ZM177.549 284.635L178.034 284.355C179.852 283.305 181.196 282.168 182.065 280.943C182.934 279.695 183.338 278.423 183.277 277.128C183.217 275.81 182.691 274.515 181.701 273.243C180.711 271.972 179.256 270.782 177.336 269.674C175.437 268.577 173.386 267.743 171.183 267.171C168.98 266.6 166.737 266.296 164.454 266.261C162.191 266.215 159.988 266.448 157.846 266.961C155.704 267.451 153.724 268.221 151.905 269.271L151.42 269.551L177.549 284.635ZM237.617 264.867C235.475 266.103 233.252 267.188 230.948 268.122C228.665 269.067 226.401 269.86 224.158 270.502C221.935 271.131 219.834 271.633 217.853 272.006C215.853 272.368 214.085 272.596 212.549 272.689L207.82 262.33C209.316 262.166 210.872 261.945 212.488 261.665C214.125 261.373 215.742 261.023 217.338 260.615C218.935 260.206 220.44 259.746 221.855 259.232C223.289 258.707 224.552 258.13 225.644 257.5C226.654 256.917 227.381 256.357 227.826 255.82C228.271 255.283 228.422 254.764 228.281 254.263C228.119 253.749 227.654 253.271 226.886 252.828C226.118 252.384 225.26 252.11 224.31 252.005C223.36 251.877 222.208 251.889 220.854 252.04C219.5 252.192 217.843 252.46 215.883 252.845C213.923 253.23 211.559 253.708 208.79 254.28C206.668 254.712 204.587 255.015 202.546 255.19C200.505 255.342 198.535 255.347 196.635 255.208C194.756 255.056 192.968 254.747 191.27 254.28C189.593 253.802 188.047 253.154 186.633 252.338C184.652 251.194 183.157 249.853 182.146 248.313C181.116 246.761 180.631 245.116 180.691 243.378C180.752 241.64 181.419 239.902 182.692 238.164C183.985 236.414 185.956 234.775 188.603 233.246C190.3 232.267 192.281 231.333 194.544 230.447C196.827 229.548 199.192 228.767 201.637 228.102C204.082 227.437 206.406 226.959 208.608 226.667L214.065 235.906C212.407 236.163 210.781 236.507 209.184 236.939C207.568 237.359 206.072 237.837 204.698 238.374C203.304 238.899 202.091 239.459 201.061 240.053C200.071 240.625 199.343 241.185 198.878 241.733C198.393 242.27 198.191 242.783 198.272 243.273C198.333 243.752 198.707 244.189 199.394 244.586C199.838 244.842 200.323 245.017 200.849 245.111C201.374 245.181 201.99 245.175 202.698 245.093C203.425 245 204.314 244.837 205.365 244.603C206.416 244.37 207.699 244.084 209.215 243.746C212.973 242.906 216.368 242.229 219.399 241.716C222.43 241.203 225.209 240.928 227.735 240.893C230.261 240.835 232.625 241.068 234.828 241.593C237.031 242.118 239.183 242.987 241.284 244.201C244.639 246.137 246.71 248.266 247.498 250.588C248.306 252.898 247.872 255.272 246.195 257.71C244.518 260.148 241.658 262.534 237.617 264.867ZM-41.1653 543.64C-44.1618 545.37 -47.5394 546.66 -51.298 547.51C-55.0567 548.36 -58.9366 548.77 -62.9377 548.74C-66.9561 548.7 -70.8706 548.23 -74.6812 547.33C-78.4918 546.41 -81.9387 545.06 -85.0218 543.28C-88.1049 541.5 -90.4346 539.515 -92.0108 537.325C-93.587 535.116 -94.4011 532.856 -94.453 530.546C-94.5223 528.226 -93.8208 525.981 -92.3485 523.811C-90.8763 521.641 -88.6419 519.692 -85.6454 517.962C-82.6488 516.232 -79.2713 514.942 -75.5126 514.092C-71.754 513.242 -67.8655 512.837 -63.847 512.877C-59.8459 512.907 -55.94 513.382 -52.1294 514.302C-48.3189 515.202 -44.872 516.542 -41.7889 518.322C-38.7058 520.102 -36.3761 522.096 -34.7999 524.306C-33.2237 526.496 -32.401 528.751 -32.3317 531.071C-32.2797 533.381 -32.9899 535.62 -34.4621 537.79C-35.9344 539.96 -38.1688 541.91 -41.1653 543.64ZM-52.1814 537.28C-50.7784 536.47 -49.7651 535.585 -49.1416 534.626C-48.5354 533.656 -48.3189 532.651 -48.4921 531.611C-48.6653 530.571 -49.2195 529.531 -50.1549 528.491C-51.0902 527.431 -52.4066 526.411 -54.104 525.431C-55.8015 524.451 -57.5595 523.696 -59.3782 523.166C-61.1969 522.616 -63.007 522.291 -64.8083 522.191C-66.6097 522.091 -68.3418 522.221 -70.0046 522.581C-71.6847 522.931 -73.2263 523.511 -74.6293 524.321C-76.0323 525.131 -77.0369 526.021 -77.6431 526.991C-78.2667 527.951 -78.4918 528.951 -78.3186 529.991C-78.1454 531.031 -77.5912 532.081 -76.6558 533.141C-75.7205 534.181 -74.4041 535.191 -72.7067 536.17C-71.0092 537.15 -69.2511 537.915 -67.4324 538.465C-65.6138 538.995 -63.8037 539.31 -62.0024 539.41C-60.201 539.51 -58.4602 539.385 -56.7801 539.035C-55.1173 538.675 -53.5844 538.09 -52.1814 537.28ZM-13.7002 526.824L-56.5694 502.076L-30.8999 487.257L-20.8711 493.047L-37.4472 502.616V499.916L-26.4311 506.276L-31.1077 506.276L-15.6748 497.366L-5.646 503.156L-21.0789 512.065V509.366L-2.26843 520.225L-13.7002 526.824ZM61.6125 485.026C51.6703 490.766 41.7887 493.758 31.9678 494.003C22.1165 494.231 12.5987 491.693 3.41427 486.391L-45.1448 458.358L-25.1392 446.809L17.4182 471.377C22.8137 474.492 27.2846 476.216 30.8311 476.548C34.3775 476.881 38.0907 475.927 41.9706 473.687C45.8504 471.447 47.5024 469.304 46.9265 467.256C46.3506 465.209 43.3649 462.628 37.9694 459.513L-4.58798 434.945L15.4176 423.395L63.9768 451.429C73.1612 456.731 77.5563 462.225 77.1623 467.912C76.7682 473.565 71.585 479.269 61.6125 485.026ZM126.587 447.516C123.374 449.371 120.04 450.999 116.585 452.398C113.159 453.816 109.764 455.006 106.4 455.968C103.066 456.913 99.9132 457.666 96.9427 458.226C93.9419 458.768 91.2896 459.109 88.9859 459.249L81.893 443.71C84.1361 443.465 86.4701 443.133 88.895 442.713C91.3502 442.275 93.7751 441.75 96.1698 441.138C98.5644 440.525 100.823 439.834 102.944 439.064C105.097 438.277 106.991 437.411 108.628 436.466C110.143 435.591 111.235 434.751 111.901 433.946C112.568 433.141 112.796 432.362 112.583 431.61C112.341 430.84 111.644 430.122 110.492 429.457C109.34 428.793 108.052 428.381 106.627 428.224C105.203 428.031 103.475 428.049 101.444 428.276C99.4131 428.504 96.9275 428.906 93.9873 429.484C91.0471 430.061 87.5007 430.779 83.348 431.636C80.1653 432.284 77.0432 432.738 73.9817 433.001C70.9202 433.228 67.9649 433.237 65.1156 433.027C62.2966 432.8 59.614 432.336 57.0678 431.636C54.552 430.919 52.2332 429.947 50.1113 428.723C47.1408 427.008 44.8978 424.995 43.3822 422.685C41.8363 420.358 41.1088 417.891 41.1998 415.283C41.2907 412.676 42.291 410.069 44.2006 407.461C46.1405 404.837 49.0959 402.378 53.0667 400.086C55.6129 398.616 58.5834 397.216 61.9783 395.886C65.4035 394.538 68.95 393.366 72.6177 392.369C76.2854 391.371 79.7712 390.654 83.0752 390.216L91.2593 404.075C88.7737 404.46 86.3337 404.977 83.939 405.624C81.5141 406.254 79.2711 406.971 77.2099 407.776C75.1184 408.564 73.2997 409.404 71.7538 410.296C70.2685 411.154 69.1773 411.994 68.4802 412.816C67.7527 413.621 67.4496 414.391 67.5708 415.126C67.6617 415.843 68.2225 416.5 69.2531 417.095C69.9199 417.479 70.6474 417.742 71.4355 417.882C72.2236 417.987 73.1481 417.978 74.209 417.856C75.3002 417.716 76.634 417.471 78.2102 417.121C79.7864 416.771 81.7111 416.342 83.9845 415.835C89.6225 414.575 94.7148 413.56 99.2615 412.79C103.808 412.02 107.976 411.609 111.765 411.556C115.554 411.469 119.1 411.819 122.404 412.606C125.708 413.394 128.937 414.697 132.089 416.517C137.121 419.422 140.228 422.615 141.41 426.098C142.622 429.562 141.971 433.123 139.455 436.781C136.939 440.438 132.65 444.017 126.587 447.516ZM166.977 422.519L91.9562 379.21L136.332 353.591L153.883 363.723L129.512 377.792L140.606 384.197L163.886 370.758L181.436 380.89L158.157 394.329L169.433 400.838L193.803 386.769L211.353 396.901L166.977 422.519ZM227.896 387.351L152.875 344.041L182.52 326.927C187.794 323.882 193.326 321.774 199.116 320.601C204.875 319.411 210.604 319.219 216.302 320.024C221.971 320.811 227.32 322.657 232.352 325.562C235.929 327.627 238.642 329.841 240.491 332.203C242.31 334.548 243.249 336.98 243.31 339.5C243.37 341.985 242.507 344.513 240.718 347.086L293.46 349.501L268.09 364.147L221.94 360.761L221.895 360.787L247.902 375.801L227.896 387.351ZM205.345 351.233L208.436 349.448C210.983 347.978 212.801 346.578 213.892 345.248C215.014 343.901 215.393 342.632 215.029 341.442C214.665 340.218 213.589 339.089 211.801 338.056C209.043 336.464 205.981 335.834 202.617 336.167C199.252 336.464 195.675 337.706 191.886 339.894L188.795 341.679L205.345 351.233ZM321.422 335.038C318.209 336.893 314.875 338.521 311.419 339.92C307.994 341.338 304.599 342.528 301.235 343.49C297.9 344.435 294.748 345.188 291.777 345.748C288.776 346.29 286.124 346.631 283.821 346.771L276.728 331.232C278.971 330.987 281.305 330.655 283.73 330.235C286.185 329.797 288.61 329.272 291.004 328.66C293.399 328.047 295.657 327.356 297.779 326.586C299.931 325.799 301.826 324.933 303.462 323.988C304.978 323.113 306.069 322.273 306.736 321.468C307.403 320.663 307.63 319.884 307.418 319.132C307.176 318.362 306.478 317.644 305.327 316.979C304.175 316.314 302.886 315.903 301.462 315.746C300.037 315.553 298.309 315.571 296.279 315.798C294.248 316.026 291.762 316.428 288.822 317.006C285.882 317.583 282.335 318.301 278.183 319.158C275 319.806 271.878 320.26 268.816 320.523C265.755 320.75 262.799 320.759 259.95 320.549C257.131 320.322 254.449 319.858 251.902 319.158C249.387 318.441 247.068 317.469 244.946 316.244C241.975 314.53 239.732 312.517 238.217 310.207C236.671 307.88 235.943 305.413 236.034 302.805C236.125 300.198 237.126 297.591 239.035 294.983C240.975 292.359 243.931 289.9 247.901 287.608C250.448 286.138 253.418 284.738 256.813 283.408C260.238 282.06 263.785 280.888 267.452 279.891C271.12 278.893 274.606 278.176 277.91 277.738L286.094 291.597C283.608 291.982 281.168 292.499 278.774 293.146C276.349 293.776 274.106 294.493 272.044 295.298C269.953 296.086 268.134 296.926 266.588 297.818C265.103 298.676 264.012 299.516 263.315 300.338C262.587 301.143 262.284 301.913 262.405 302.648C262.496 303.365 263.057 304.022 264.088 304.617C264.755 305.001 265.482 305.264 266.27 305.404C267.058 305.509 267.983 305.5 269.044 305.378C270.135 305.238 271.469 304.993 273.045 304.643C274.621 304.293 276.546 303.864 278.819 303.357C284.457 302.097 289.549 301.082 294.096 300.312C298.643 299.542 302.811 299.131 306.6 299.078C310.389 298.991 313.935 299.341 317.239 300.128C320.543 300.915 323.771 302.219 326.924 304.039C331.955 306.944 335.062 310.137 336.244 313.62C337.457 317.084 336.805 320.645 334.289 324.303C331.773 327.96 327.484 331.538 321.422 335.038Z" fill="url(#paint1_linear_498_309)" fill-opacity="0.15"/>
<path d="M78.8237 104C69.6263 109.31 58.6167 112.111 45.7949 112.403L32.7003 95.3943C41.1183 95.0344 46.7692 94.0219 49.6531 92.357C51.9525 91.0296 52.8099 89.4097 52.2253 87.4974C51.6797 85.5625 49.7701 83.6501 46.4964 81.7602L-16.4044 45.4476L9.31712 30.5986L78.6483 70.6235C87.8847 75.9556 92.4639 81.569 92.3859 87.4636C92.308 93.3132 87.7872 98.8254 78.8237 104ZM170.247 51.2211C163.505 55.1134 155.906 58.0157 147.449 59.928C138.992 61.8404 130.262 62.7629 121.26 62.6954C112.218 62.6054 103.41 61.5479 94.8366 59.5231C86.2628 57.4532 78.5073 54.4159 71.5703 50.4112C64.6333 46.4064 59.3916 41.9405 55.8451 37.0133C52.2987 32.0411 50.467 26.9564 50.3501 21.7593C50.1942 16.5396 51.7725 11.4887 55.0852 6.60651C58.3978 1.72433 63.4252 -2.66288 70.1673 -6.55513C76.9095 -10.4474 84.509 -13.3497 92.9659 -15.2621C101.423 -17.1744 110.172 -18.0856 119.214 -17.9956C128.216 -17.9281 137.004 -16.8595 145.578 -14.7896C154.152 -12.7647 161.907 -9.74992 168.844 -5.74518C175.781 -1.74044 181.023 2.74802 184.57 7.72019C188.116 12.6474 189.967 17.7208 190.123 22.9405C190.24 28.1376 188.642 33.1773 185.33 38.0595C182.017 42.9416 176.99 47.3289 170.247 51.2211ZM145.461 36.912C148.618 35.0897 150.898 33.0985 152.301 30.9387C153.665 28.7563 154.152 26.4952 153.762 24.1554C153.373 21.8155 152.125 19.4757 150.021 17.1358C147.916 14.751 144.955 12.4561 141.135 10.2513C137.316 8.04642 133.36 6.34778 129.268 5.15536C125.176 3.91794 121.104 3.18674 117.051 2.96175C112.998 2.73677 109.1 3.02925 105.359 3.8392C101.579 4.62665 98.1102 5.93156 94.9535 7.75394C91.7968 9.57632 89.5364 11.5787 88.1724 13.761C86.7694 15.9209 86.2628 18.1708 86.6525 20.5106C87.0422 22.8505 88.2893 25.2128 90.3938 27.5976C92.4983 29.9375 95.4601 32.2098 99.2794 34.4147C103.099 36.6196 107.054 38.3407 111.146 39.5781C115.238 40.7705 119.311 41.4792 123.364 41.7042C127.417 41.9292 131.334 41.648 135.114 40.8605C138.855 40.0506 142.304 38.7344 145.461 36.912ZM232.044 13.3861L135.588 -42.2977L161.31 -57.1468L257.765 -1.4629L232.044 13.3861ZM280.683 -14.6931L184.227 -70.377L209.949 -85.226L298.337 -74.1567L244.556 -105.205L270.277 -120.054L366.733 -64.3698L341.011 -49.5208L252.623 -60.5901L306.404 -29.5421L280.683 -14.6931ZM398.675 -82.81L354.888 -108.088L342.417 -100.889L329.045 -108.608L369.229 -131.807L382.601 -124.087L370.13 -116.888L413.917 -91.6094L398.675 -82.81ZM455.876 -114.552C451.881 -112.246 447.377 -110.526 442.366 -109.393C437.354 -108.259 432.181 -107.713 426.846 -107.753C421.488 -107.806 416.269 -108.433 411.188 -109.633C406.107 -110.859 401.512 -112.659 397.401 -115.032C393.29 -117.405 390.184 -120.052 388.082 -122.972C385.981 -125.918 384.895 -128.931 384.826 -132.011C384.733 -135.104 385.669 -138.097 387.632 -140.991C389.595 -143.884 392.574 -146.484 396.569 -148.79C400.565 -151.097 405.068 -152.816 410.08 -153.95C415.091 -155.083 420.276 -155.623 425.634 -155.57C430.969 -155.53 436.177 -154.896 441.257 -153.67C446.338 -152.47 450.934 -150.683 455.045 -148.31C459.156 -145.937 462.262 -143.277 464.363 -140.331C466.465 -137.411 467.562 -134.404 467.654 -131.311C467.724 -128.231 466.777 -125.245 464.814 -122.352C462.851 -119.459 459.871 -116.859 455.876 -114.552ZM441.188 -123.032C443.059 -124.112 444.41 -125.292 445.241 -126.572C446.049 -127.865 446.338 -129.205 446.107 -130.591C445.876 -131.978 445.137 -133.364 443.89 -134.751C442.643 -136.164 440.888 -137.524 438.625 -138.831C436.361 -140.137 434.017 -141.144 431.592 -141.851C429.167 -142.584 426.754 -143.017 424.352 -143.15C421.95 -143.284 419.641 -143.11 417.424 -142.63C415.184 -142.164 413.128 -141.391 411.258 -140.311C409.387 -139.231 408.047 -138.044 407.239 -136.751C406.408 -135.471 406.107 -134.138 406.338 -132.751C406.569 -131.365 407.308 -129.965 408.555 -128.551C409.803 -127.165 411.558 -125.818 413.821 -124.512C416.084 -123.205 418.428 -122.185 420.853 -121.452C423.278 -120.745 425.692 -120.325 428.093 -120.192C430.495 -120.059 432.816 -120.225 435.056 -120.692C437.274 -121.172 439.317 -121.952 441.188 -123.032ZM133.161 148.466L94.8477 126.347L83.9355 132.647L72.2352 125.892L107.397 105.594L119.097 112.348L108.185 118.648L146.499 140.766L133.161 148.466ZM163.039 131.218L113.025 102.345L126.362 94.6451L145.458 105.669L158.31 98.2499L139.214 87.2256L152.551 79.5261L202.565 108.399L189.228 116.099L170.01 105.004L157.158 112.424L176.376 123.518L163.039 131.218ZM236.554 89.8975C233.058 91.9157 229.117 93.4206 224.732 94.4122C220.347 95.4038 215.821 95.8821 211.153 95.8471C206.464 95.8004 201.897 95.2521 197.452 94.2022C193.006 93.1289 188.985 91.554 185.388 89.4775C181.791 87.401 179.073 85.0853 177.234 82.5304C175.395 79.9523 174.445 77.3158 174.385 74.621C174.304 71.9145 175.122 69.2955 176.84 66.764C178.558 64.2325 181.164 61.9576 184.66 59.9394C188.156 57.9212 192.097 56.4163 196.482 55.4247C200.867 54.4331 205.404 53.9606 210.092 54.0073C214.76 54.0423 219.317 54.5964 223.762 55.6697C228.208 56.7196 232.229 58.2829 235.826 60.3594C239.423 62.4359 242.141 64.7633 243.98 67.3414C245.819 69.8963 246.779 72.5269 246.86 75.2334C246.92 77.9282 246.092 80.5414 244.374 83.0729C242.656 85.6044 240.05 87.8793 236.554 89.8975ZM223.702 82.478C225.338 81.533 226.521 80.5006 227.248 79.3807C227.955 78.2491 228.208 77.0766 228.006 75.8634C227.804 74.6501 227.157 73.4369 226.066 72.2236C224.975 70.987 223.439 69.7971 221.459 68.6539C219.478 67.5106 217.427 66.6298 215.305 66.0115C213.183 65.3699 211.072 64.9908 208.97 64.8741C206.869 64.7574 204.848 64.9091 202.908 65.3291C200.948 65.7374 199.149 66.414 197.512 67.3589C195.876 68.3039 194.704 69.3421 193.996 70.4737C193.269 71.5937 193.006 72.7603 193.208 73.9735C193.41 75.1868 194.057 76.4117 195.148 77.6483C196.239 78.8615 197.775 80.0398 199.755 81.183C201.736 82.3263 203.787 83.2187 205.909 83.8604C208.031 84.4787 210.142 84.8461 212.244 84.9628C214.345 85.0794 216.376 84.9336 218.336 84.5253C220.276 84.1053 222.065 83.4229 223.702 82.478ZM288.814 59.7275C282.186 63.5539 275.598 65.5488 269.051 65.7121C262.483 65.8638 256.138 64.1722 250.015 60.6375L217.643 41.9487L230.98 34.2492L259.351 50.6281C262.948 52.7046 265.929 53.8537 268.293 54.0754C270.658 54.297 273.133 53.6613 275.72 52.168C278.306 50.6748 279.407 49.2457 279.023 47.8808C278.64 46.5159 276.649 44.7952 273.052 42.7186L244.681 26.3397L258.018 18.6402L290.39 37.329C296.513 40.8638 299.443 44.5268 299.181 48.3183C298.918 52.0864 295.462 55.8894 288.814 59.7275ZM332.131 34.7208C329.989 35.9574 327.766 37.0424 325.462 37.9756C323.179 38.9206 320.915 39.7138 318.672 40.3555C316.45 40.9854 314.348 41.4871 312.368 41.8604C310.367 42.222 308.599 42.4495 307.063 42.5428L302.334 32.1835C303.83 32.0202 305.386 31.7985 307.002 31.5185C308.639 31.2269 310.256 30.8769 311.852 30.4686C313.449 30.0603 314.954 29.5995 316.369 29.0862C317.803 28.5612 319.066 27.9838 320.158 27.3538C321.168 26.7705 321.896 26.2106 322.34 25.6739C322.785 25.1373 322.936 24.6182 322.795 24.1165C322.633 23.6032 322.168 23.1249 321.4 22.6816C320.633 22.2383 319.774 21.9642 318.824 21.8592C317.874 21.7308 316.722 21.7425 315.368 21.8942C314.015 22.0458 312.358 22.3141 310.397 22.6991C308.437 23.0841 306.073 23.5624 303.304 24.134C301.183 24.5657 299.101 24.869 297.06 25.044C295.019 25.1956 293.049 25.2015 291.15 25.0615C289.27 24.9098 287.482 24.6007 285.784 24.134C284.107 23.6557 282.561 23.0083 281.147 22.1917C279.166 21.0484 277.671 19.7068 276.661 18.1669C275.63 16.6153 275.145 14.9705 275.206 13.2322C275.266 11.494 275.933 9.7558 277.206 8.01758C278.5 6.26769 280.47 4.62863 283.117 3.1004C284.814 2.12046 286.795 1.18719 289.058 0.300581C291.342 -0.597693 293.706 -1.37931 296.151 -2.04427C298.596 -2.70922 300.92 -3.18752 303.123 -3.47917L308.579 5.76022C306.922 6.01687 305.295 6.36102 303.699 6.79266C302.082 7.21263 300.587 7.69093 299.212 8.22757C297.818 8.75253 296.606 9.31249 295.575 9.90745C294.585 10.4791 293.857 11.039 293.393 11.5873C292.908 12.124 292.706 12.6373 292.786 13.1272C292.847 13.6055 293.221 14.043 293.908 14.4397C294.352 14.6963 294.837 14.8713 295.363 14.9646C295.888 15.0346 296.505 15.0288 297.212 14.9471C297.939 14.8538 298.828 14.6905 299.879 14.4572C300.93 14.2238 302.213 13.938 303.729 13.5997C307.487 12.7598 310.882 12.0831 313.914 11.5698C316.945 11.0565 319.723 10.7824 322.249 10.7474C324.775 10.6891 327.139 10.9224 329.342 11.4474C331.545 11.9723 333.697 12.8414 335.798 14.0547C339.153 15.9912 341.224 18.1203 342.012 20.4418C342.821 22.7516 342.386 25.1256 340.709 27.5638C339.032 30.002 336.172 32.3877 332.131 34.7208ZM351.874 22.2034L322.229 -18.4289L334.596 -25.5685L404.979 -8.45459L390.612 -0.160131L379.305 -3.22243L360.937 7.38188L366.241 13.909L351.874 22.2034ZM353.783 -1.99751L363.058 -7.35216L346.539 -11.5344L353.783 -1.99751ZM409.675 -11.1655L359.661 -40.0387L372.998 -47.7382L418.829 -41.9985L390.943 -58.0975L404.28 -65.797L454.294 -36.9239L440.957 -29.2244L395.126 -34.964L423.012 -18.865L409.675 -11.1655ZM466.154 -43.7708L416.14 -72.644L431.538 -81.5334C435.095 -83.5866 439.035 -85.1265 443.36 -86.1531C447.684 -87.1797 452.13 -87.693 456.697 -87.693C461.284 -87.7046 465.74 -87.1972 470.064 -86.1706C474.389 -85.1673 478.309 -83.6507 481.825 -81.6209C485.341 -79.591 487.979 -77.3336 489.737 -74.8488C491.495 -72.364 492.354 -69.8033 492.313 -67.1668C492.293 -64.542 491.384 -61.9755 489.585 -59.4673C487.787 -56.9825 485.109 -54.7135 481.552 -52.6603L466.154 -43.7708ZM467.549 -58.3649L468.034 -58.6449C469.852 -59.6948 471.196 -60.8322 472.065 -62.0571C472.934 -63.3054 473.338 -64.577 473.277 -65.8719C473.217 -67.1901 472.691 -68.4851 471.701 -69.7566C470.711 -71.0282 469.256 -72.2181 467.336 -73.3264C465.437 -74.423 463.386 -75.2571 461.183 -75.8287C458.98 -76.4004 456.737 -76.7037 454.454 -76.7387C452.191 -76.7854 449.988 -76.552 447.846 -76.0387C445.704 -75.5488 443.724 -74.7788 441.905 -73.7289L441.42 -73.4489L467.549 -58.3649ZM527.617 -78.1331C525.475 -76.8965 523.252 -75.8116 520.948 -74.8783C518.665 -73.9334 516.401 -73.1401 514.158 -72.4985C511.935 -71.8685 509.834 -71.3669 507.853 -70.9936C505.853 -70.6319 504.085 -70.4045 502.549 -70.3111L497.82 -80.6705C499.316 -80.8338 500.872 -81.0554 502.488 -81.3354C504.125 -81.6271 505.742 -81.977 507.338 -82.3853C508.935 -82.7937 510.44 -83.2545 511.855 -83.7678C513.289 -84.2927 514.552 -84.8702 515.644 -85.5001C516.654 -86.0834 517.381 -86.6434 517.826 -87.18C518.271 -87.7167 518.422 -88.2358 518.281 -88.7374C518.119 -89.2507 517.654 -89.729 516.886 -90.1723C516.118 -90.6156 515.26 -90.8898 514.31 -90.9948C513.36 -91.1231 512.208 -91.1114 510.854 -90.9598C509.5 -90.8081 507.843 -90.5398 505.883 -90.1548C503.923 -89.7699 501.559 -89.2916 498.79 -88.7199C496.668 -88.2883 494.587 -87.985 492.546 -87.81C490.505 -87.6583 488.535 -87.6525 486.635 -87.7925C484.756 -87.9442 482.968 -88.2533 481.27 -88.7199C479.593 -89.1982 478.047 -89.8457 476.633 -90.6623C474.652 -91.8056 473.157 -93.1471 472.146 -94.687C471.116 -96.2386 470.631 -97.8835 470.691 -99.6217C470.752 -101.36 471.419 -103.098 472.692 -104.836C473.985 -106.586 475.956 -108.225 478.603 -109.754C480.3 -110.733 482.281 -111.667 484.544 -112.553C486.827 -113.452 489.192 -114.233 491.637 -114.898C494.082 -115.563 496.406 -116.041 498.608 -116.333L504.065 -107.094C502.407 -106.837 500.781 -106.493 499.184 -106.061C497.568 -105.641 496.072 -105.163 494.698 -104.626C493.304 -104.101 492.091 -103.541 491.061 -102.947C490.071 -102.375 489.343 -101.815 488.878 -101.267C488.393 -100.73 488.191 -100.217 488.272 -99.7267C488.333 -99.2484 488.707 -98.8109 489.394 -98.4143C489.838 -98.1577 490.323 -97.9827 490.849 -97.8893C491.374 -97.8193 491.99 -97.8252 492.698 -97.9068C493.425 -98.0002 494.314 -98.1635 495.365 -98.3968C496.416 -98.6301 497.699 -98.9159 499.215 -99.2542C502.973 -100.094 506.368 -100.771 509.399 -101.284C512.43 -101.797 515.209 -102.072 517.735 -102.107C520.261 -102.165 522.625 -101.932 524.828 -101.407C527.031 -100.882 529.183 -100.013 531.284 -98.7993C534.639 -96.8627 536.71 -94.7337 537.498 -92.4122C538.306 -90.1023 537.872 -87.7283 536.195 -85.2902C534.518 -82.852 531.658 -80.4663 527.617 -78.1331ZM248.835 200.64C245.838 202.37 242.461 203.66 238.702 204.51C234.943 205.36 231.063 205.77 227.062 205.74C223.044 205.7 219.129 205.23 215.319 204.33C211.508 203.41 208.061 202.06 204.978 200.28C201.895 198.5 199.565 196.515 197.989 194.325C196.413 192.116 195.599 189.856 195.547 187.546C195.478 185.226 196.179 182.981 197.651 180.811C199.124 178.641 201.358 176.692 204.355 174.962C207.351 173.232 210.729 171.942 214.487 171.092C218.246 170.242 222.135 169.837 226.153 169.877C230.154 169.907 234.06 170.382 237.871 171.302C241.681 172.202 245.128 173.542 248.211 175.322C251.294 177.102 253.624 179.096 255.2 181.306C256.776 183.496 257.599 185.751 257.668 188.071C257.72 190.381 257.01 192.62 255.538 194.79C254.066 196.96 251.831 198.91 248.835 200.64ZM237.819 194.28C239.222 193.47 240.235 192.585 240.858 191.626C241.465 190.656 241.681 189.651 241.508 188.611C241.335 187.571 240.78 186.531 239.845 185.491C238.91 184.431 237.593 183.411 235.896 182.431C234.199 181.451 232.44 180.696 230.622 180.166C228.803 179.616 226.993 179.291 225.192 179.191C223.39 179.091 221.658 179.221 219.995 179.581C218.315 179.931 216.774 180.511 215.371 181.321C213.968 182.131 212.963 183.021 212.357 183.991C211.733 184.951 211.508 185.951 211.681 186.991C211.855 188.031 212.409 189.081 213.344 190.141C214.28 191.181 215.596 192.191 217.293 193.17C218.991 194.15 220.749 194.915 222.568 195.465C224.386 195.995 226.196 196.31 227.998 196.41C229.799 196.51 231.54 196.385 233.22 196.035C234.883 195.675 236.416 195.09 237.819 194.28ZM276.3 183.824L233.431 159.076L259.1 144.257L269.129 150.047L252.553 159.616V156.916L263.569 163.276L258.892 163.276L274.325 154.366L284.354 160.156L268.921 169.065V166.366L287.732 177.225L276.3 183.824ZM351.612 142.026C341.67 147.766 331.789 150.758 321.968 151.003C312.117 151.231 302.599 148.693 293.414 143.391L244.855 115.358L264.861 103.809L307.418 128.377C312.814 131.492 317.285 133.216 320.831 133.548C324.378 133.881 328.091 132.927 331.971 130.687C335.85 128.447 337.502 126.304 336.927 124.256C336.351 122.209 333.365 119.628 327.969 116.513L285.412 91.9446L305.418 80.3953L353.977 108.429C363.161 113.731 367.556 119.225 367.162 124.912C366.768 130.565 361.585 136.269 351.612 142.026ZM416.587 104.516C413.374 106.371 410.04 107.999 406.585 109.398C403.159 110.816 399.764 112.006 396.4 112.968C393.066 113.913 389.913 114.666 386.943 115.226C383.942 115.768 381.29 116.109 378.986 116.249L371.893 100.71C374.136 100.465 376.47 100.133 378.895 99.7128C381.35 99.2754 383.775 98.7504 386.17 98.1379C388.564 97.5255 390.823 96.8343 392.944 96.0643C395.097 95.2769 396.991 94.4107 398.628 93.4658C400.143 92.5908 401.235 91.7509 401.901 90.9459C402.568 90.141 402.796 89.3623 402.583 88.6098C402.341 87.8399 401.644 87.1224 400.492 86.4575C399.34 85.7925 398.052 85.3813 396.627 85.2238C395.203 85.0313 393.475 85.0488 391.444 85.2763C389.413 85.5038 386.928 85.9062 383.987 86.4837C381.047 87.0612 377.501 87.7786 373.348 88.6361C370.165 89.2835 367.043 89.7385 363.982 90.001C360.92 90.2285 357.965 90.2372 355.116 90.0272C352.297 89.7997 349.614 89.336 347.068 88.6361C344.552 87.9186 342.233 86.9474 340.111 85.7225C337.141 84.0076 334.898 81.9952 333.382 79.6854C331.836 77.3581 331.109 74.8907 331.2 72.2834C331.291 69.6761 332.291 67.0687 334.201 64.4614C336.141 61.8366 339.096 59.378 343.067 57.0856C345.613 55.6157 348.583 54.2158 351.978 52.8859C355.404 51.5385 358.95 50.3661 362.618 49.3686C366.285 48.3712 369.771 47.6537 373.075 47.2163L381.259 61.0754C378.774 61.4603 376.334 61.9766 373.939 62.624C371.514 63.254 369.271 63.9714 367.21 64.7764C365.118 65.5638 363.3 66.4038 361.754 67.2962C360.269 68.1537 359.177 68.9936 358.48 69.816C357.753 70.621 357.45 71.3909 357.571 72.1259C357.662 72.8433 358.223 73.4996 359.253 74.0945C359.92 74.4795 360.647 74.742 361.436 74.882C362.224 74.987 363.148 74.9782 364.209 74.8557C365.3 74.7157 366.634 74.4707 368.21 74.1208C369.786 73.7708 371.711 73.3421 373.985 72.8346C379.622 71.5747 384.715 70.5597 389.262 69.7898C393.808 69.0198 397.976 68.6086 401.765 68.5561C405.554 68.4686 409.1 68.8186 412.404 69.6061C415.708 70.3935 418.937 71.6972 422.089 73.5171C427.121 76.4219 430.228 79.6154 431.41 83.0977C432.622 86.5625 431.971 90.1235 429.455 93.7807C426.939 97.438 422.65 101.017 416.587 104.516ZM456.977 79.5193L381.956 36.2096L426.332 10.5913L443.883 20.7231L419.512 34.7922L430.606 41.1968L453.886 27.7577L471.436 37.8895L448.157 51.3286L459.433 57.8382L483.803 43.7691L501.353 53.901L456.977 79.5193ZM517.896 44.3507L442.875 1.04102L472.52 -16.0729C477.794 -19.1177 483.326 -21.2263 489.116 -22.3987C494.875 -23.5886 500.604 -23.7811 506.302 -22.9762C511.971 -22.1887 517.32 -20.3426 522.352 -17.4378C525.929 -15.3729 528.642 -13.1593 530.491 -10.797C532.31 -8.45211 533.249 -6.01977 533.31 -3.49993C533.37 -1.01509 532.507 1.51349 530.718 4.08582L583.46 6.50066L558.09 21.1472L511.94 17.7612L511.895 17.7874L537.902 32.8014L517.896 44.3507ZM495.345 8.23305L498.436 6.44817C500.983 4.97826 502.801 3.57835 503.892 2.24844C505.014 0.90103 505.393 -0.367637 505.029 -1.55756C504.665 -2.78248 503.589 -3.91116 501.801 -4.94359C499.043 -6.53599 495.981 -7.16594 492.617 -6.83347C489.252 -6.53599 485.675 -5.29357 481.886 -3.10621L478.795 -1.32133L495.345 8.23305ZM611.422 -7.96173C608.209 -6.10685 604.875 -4.47946 601.419 -3.07955C597.994 -1.66214 594.599 -0.472219 591.235 0.490219C587.9 1.43516 584.748 2.18761 581.777 2.74757C578.776 3.29004 576.124 3.63126 573.821 3.77125L566.728 -11.7677C568.971 -12.0127 571.305 -12.3452 573.73 -12.7652C576.185 -13.2026 578.61 -13.7276 581.004 -14.3401C583.399 -14.9525 585.657 -15.6437 587.779 -16.4137C589.931 -17.2011 591.826 -18.0673 593.462 -19.0123C594.978 -19.8872 596.069 -20.7271 596.736 -21.5321C597.403 -22.337 597.63 -23.1157 597.418 -23.8682C597.176 -24.6381 596.478 -25.3556 595.327 -26.0206C594.175 -26.6855 592.886 -27.0967 591.462 -27.2542C590.037 -27.4467 588.309 -27.4292 586.279 -27.2017C584.248 -26.9742 581.762 -26.5718 578.822 -25.9943C575.882 -25.4168 572.335 -24.6994 568.183 -23.8419C565 -23.1945 561.878 -22.7395 558.816 -22.477C555.755 -22.2495 552.799 -22.2408 549.95 -22.4508C547.131 -22.6783 544.449 -23.142 541.902 -23.8419C539.387 -24.5594 537.068 -25.5306 534.946 -26.7555C531.975 -28.4704 529.732 -30.4828 528.217 -32.7926C526.671 -35.12 525.943 -37.5873 526.034 -40.1946C526.125 -42.802 527.126 -45.4093 529.035 -48.0166C530.975 -50.6414 533.931 -53.1 537.901 -55.3924C540.448 -56.8623 543.418 -58.2622 546.813 -59.5921C550.238 -60.9395 553.785 -62.1119 557.452 -63.1094C561.12 -64.1068 564.606 -64.8243 567.91 -65.2617L576.094 -51.4026C573.608 -51.0177 571.168 -50.5015 568.774 -49.854C566.349 -49.224 564.106 -48.5066 562.044 -47.7016C559.953 -46.9142 558.134 -46.0742 556.588 -45.1818C555.103 -44.3244 554.012 -43.4844 553.315 -42.662C552.587 -41.857 552.284 -41.0871 552.405 -40.3521C552.496 -39.6347 553.057 -38.9785 554.088 -38.3835C554.755 -37.9985 555.482 -37.736 556.27 -37.596C557.058 -37.4911 557.983 -37.4998 559.044 -37.6223C560.135 -37.7623 561.469 -38.0073 563.045 -38.3572C564.621 -38.7072 566.546 -39.1359 568.819 -39.6434C574.457 -40.9033 579.549 -41.9183 584.096 -42.6882C588.643 -43.4582 592.811 -43.8694 596.6 -43.9219C600.389 -44.0094 603.935 -43.6594 607.239 -42.872C610.543 -42.0845 613.771 -40.7808 616.924 -38.961C621.955 -36.0561 625.062 -32.8626 626.244 -29.3803C627.457 -25.9156 626.805 -22.3545 624.289 -18.6973C621.773 -15.04 617.484 -11.4615 611.422 -7.96173Z" fill="#ECFCFF" fill-opacity="0.15"/>
</g>
<defs>
<linearGradient id="paint0_linear_498_309" x1="467.233" y1="116.663" x2="884.09" y2="319.586" gradientUnits="userSpaceOnUse">
<stop stop-color="#ECFCFF"/>
<stop offset="1" stop-color="#ECFCFF" stop-opacity="0"/>
</linearGradient>
<linearGradient id="paint1_linear_498_309" x1="-139.185" y1="239.29" x2="49.7513" y2="566.567" gradientUnits="userSpaceOnUse">
<stop offset="0.346875" stop-color="white"/>
<stop offset="1" stop-color="#ECFCFF" stop-opacity="0"/>
</linearGradient>
<clipPath id="clip0_498_309">
<rect width="1440" height="1024" fill="white"/>
</clipPath>
</defs>
</svg>
