<svg width="1440" height="1024" viewBox="0 0 1440 1024" fill="none" xmlns="http://www.w3.org/2000/svg">
<g clip-path="url(#clip0_625_384)">
<rect width="1440" height="1024" fill="#1F86F1"/>
<path d="M1253.73 286C1262.93 291.31 1273.94 294.111 1286.76 294.403L1299.85 277.394C1291.43 277.034 1285.78 276.022 1282.9 274.357C1280.6 273.03 1279.74 271.41 1280.33 269.497C1280.87 267.562 1282.78 265.65 1286.06 263.76L1348.96 227.448L1323.24 212.599L1253.9 252.623C1244.67 257.956 1240.09 263.569 1240.17 269.464C1240.24 275.313 1244.76 280.825 1253.73 286ZM1162.3 233.221C1169.05 237.113 1176.65 240.016 1185.1 241.928C1193.56 243.84 1202.29 244.763 1211.29 244.695C1220.33 244.605 1229.14 243.548 1237.72 241.523C1246.29 239.453 1254.04 236.416 1260.98 232.411C1267.92 228.406 1273.16 223.94 1276.71 219.013C1280.25 214.041 1282.09 208.956 1282.2 203.759C1282.36 198.54 1280.78 193.489 1277.47 188.606C1274.15 183.724 1269.13 179.337 1262.38 175.445C1255.64 171.553 1248.04 168.65 1239.59 166.738C1231.13 164.826 1222.38 163.914 1213.34 164.004C1204.34 164.072 1195.55 165.14 1186.97 167.21C1178.4 169.235 1170.64 172.25 1163.71 176.255C1156.77 180.259 1151.53 184.748 1147.98 189.72C1144.44 194.647 1142.58 199.721 1142.43 204.94C1142.31 210.138 1143.91 215.177 1147.22 220.059C1150.54 224.942 1155.56 229.329 1162.3 233.221ZM1187.09 218.912C1183.93 217.09 1181.65 215.098 1180.25 212.939C1178.89 210.756 1178.4 208.495 1178.79 206.155C1179.18 203.815 1180.43 201.476 1182.53 199.136C1184.64 196.751 1187.6 194.456 1191.42 192.251C1195.24 190.046 1199.19 188.348 1203.28 187.155C1207.38 185.918 1211.45 185.187 1215.5 184.962C1219.55 184.737 1223.45 185.029 1227.19 185.839C1230.97 186.627 1234.44 187.931 1237.6 189.754C1240.76 191.576 1243.02 193.579 1244.38 195.761C1245.78 197.921 1246.29 200.171 1245.9 202.511C1245.51 204.85 1244.26 207.213 1242.16 209.598C1240.05 211.937 1237.09 214.21 1233.27 216.415C1229.45 218.619 1225.5 220.341 1221.41 221.578C1217.31 222.77 1213.24 223.479 1209.19 223.704C1205.13 223.929 1201.22 223.648 1197.44 222.86C1193.7 222.051 1190.25 220.734 1187.09 218.912ZM1100.51 195.386L1196.96 139.702L1171.24 124.853L1074.79 180.537L1100.51 195.386ZM1051.87 167.307L1148.33 111.623L1122.6 96.774L1034.22 107.843L1088 76.7953L1062.27 61.9462L965.819 117.63L991.541 132.479L1079.93 121.41L1026.15 152.458L1051.87 167.307ZM933.877 99.19L977.664 73.9116L990.135 81.1111L1003.51 73.3916L963.323 50.1931L949.951 57.9126L962.422 65.1122L918.635 90.3905L933.877 99.19ZM876.676 67.4476C880.671 69.7542 885.175 71.4741 890.186 72.6073C895.198 73.7406 900.371 74.2872 905.706 74.2472C911.064 74.1939 916.283 73.5672 921.364 72.3673C926.445 71.1407 931.04 69.3409 935.151 66.9677C939.262 64.5945 942.368 61.948 944.47 59.0282C946.572 56.0817 947.657 53.0686 947.726 49.9888C947.819 46.8957 946.883 43.9025 944.92 41.0094C942.957 38.1162 939.978 35.5164 935.983 33.2099C931.987 30.9034 927.484 29.1835 922.472 28.0502C917.461 26.917 912.276 26.377 906.918 26.4303C901.583 26.4703 896.376 27.1036 891.295 28.3302C886.214 29.5301 881.618 31.3167 877.507 33.6898C873.397 36.063 870.29 38.7229 868.189 41.6693C866.087 44.5891 864.99 47.5956 864.898 50.6887C864.828 53.7685 865.775 56.755 867.738 59.6482C869.701 62.5413 872.681 65.1411 876.676 67.4476ZM891.364 58.9682C889.493 57.8883 888.142 56.7083 887.311 55.4284C886.503 54.1352 886.214 52.7953 886.445 51.4087C886.676 50.0221 887.415 48.6355 888.662 47.249C889.909 45.8357 891.664 44.4758 893.928 43.1692C896.191 41.8626 898.535 40.856 900.96 40.1494C903.385 39.4161 905.798 38.9828 908.2 38.8495C910.602 38.7162 912.911 38.8895 915.128 39.3695C917.369 39.8361 919.424 40.6094 921.295 41.6893C923.165 42.7693 924.505 43.9558 925.313 45.2491C926.144 46.529 926.445 47.8623 926.214 49.2488C925.983 50.6354 925.244 52.0353 923.997 53.4486C922.75 54.8351 920.994 56.1817 918.731 57.4883C916.468 58.7949 914.124 59.8148 911.699 60.5481C909.274 61.2547 906.861 61.6747 904.459 61.808C902.057 61.9413 899.736 61.7747 897.496 61.308C895.279 60.8281 893.235 60.0481 891.364 58.9682ZM1199.39 330.466L1237.7 308.347L1248.62 314.647L1260.32 307.892L1225.16 287.594L1213.46 294.348L1224.37 300.648L1186.05 322.766L1199.39 330.466ZM1169.51 313.218L1219.53 284.345L1206.19 276.645L1187.09 287.669L1174.24 280.25L1193.34 269.226L1180 261.526L1129.99 290.399L1143.32 298.099L1162.54 287.004L1175.39 294.424L1156.18 305.518L1169.51 313.218ZM1096 271.897C1099.49 273.916 1103.43 275.421 1107.82 276.412C1112.21 277.404 1116.73 277.882 1121.4 277.847C1126.09 277.8 1130.65 277.252 1135.1 276.202C1139.55 275.129 1143.57 273.554 1147.16 271.477C1150.76 269.401 1153.48 267.085 1155.32 264.53C1157.16 261.952 1158.11 259.316 1158.17 256.621C1158.25 253.914 1157.43 251.295 1155.71 248.764C1153.99 246.232 1151.39 243.958 1147.89 241.939C1144.4 239.921 1140.46 238.416 1136.07 237.425C1131.69 236.433 1127.15 235.961 1122.46 236.007C1117.79 236.042 1113.24 236.596 1108.79 237.67C1104.34 238.72 1100.32 240.283 1096.73 242.359C1093.13 244.436 1090.41 246.763 1088.57 249.341C1086.73 251.896 1085.77 254.527 1085.69 257.233C1085.63 259.928 1086.46 262.541 1088.18 265.073C1089.9 267.604 1092.5 269.879 1096 271.897ZM1108.85 264.478C1107.21 263.533 1106.03 262.501 1105.3 261.381C1104.6 260.249 1104.34 259.077 1104.55 257.863C1104.75 256.65 1105.4 255.437 1106.49 254.224C1107.58 252.987 1109.11 251.797 1111.09 250.654C1113.07 249.511 1115.13 248.63 1117.25 248.011C1119.37 247.37 1121.48 246.991 1123.58 246.874C1125.68 246.757 1127.7 246.909 1129.64 247.329C1131.6 247.737 1133.4 248.414 1135.04 249.359C1136.68 250.304 1137.85 251.342 1138.56 252.474C1139.28 253.594 1139.55 254.76 1139.34 255.973C1139.14 257.187 1138.5 258.412 1137.4 259.648C1136.31 260.861 1134.78 262.04 1132.8 263.183C1130.82 264.326 1128.77 265.219 1126.64 265.86C1124.52 266.479 1122.41 266.846 1120.31 266.963C1118.21 267.079 1116.18 266.934 1114.22 266.525C1112.28 266.105 1110.49 265.423 1108.85 264.478ZM1043.74 241.727C1050.37 245.554 1056.95 247.549 1063.5 247.712C1070.07 247.864 1076.41 246.172 1082.54 242.637L1114.91 223.949L1101.57 216.249L1073.2 232.628C1069.6 234.705 1066.62 235.854 1064.26 236.075C1061.89 236.297 1059.42 235.661 1056.83 234.168C1054.25 232.675 1053.14 231.246 1053.53 229.881C1053.91 228.516 1055.9 226.795 1059.5 224.719L1087.87 208.34L1074.53 200.64L1042.16 219.329C1036.04 222.864 1033.11 226.527 1033.37 230.318C1033.63 234.086 1037.09 237.889 1043.74 241.727ZM1000.42 216.721C1002.56 217.957 1004.79 219.042 1007.09 219.976C1009.37 220.921 1011.64 221.714 1013.88 222.355C1016.1 222.985 1018.2 223.487 1020.18 223.86C1022.19 224.222 1023.95 224.449 1025.49 224.543L1030.22 214.183C1028.72 214.02 1027.17 213.798 1025.55 213.518C1023.91 213.227 1022.3 212.877 1020.7 212.469C1019.1 212.06 1017.6 211.599 1016.18 211.086C1014.75 210.561 1013.49 209.984 1012.39 209.354C1011.38 208.77 1010.66 208.21 1010.21 207.674C1009.77 207.137 1009.62 206.618 1009.76 206.116C1009.92 205.603 1010.38 205.125 1011.15 204.682C1011.92 204.238 1012.78 203.964 1013.73 203.859C1014.68 203.731 1015.83 203.742 1017.18 203.894C1018.54 204.046 1020.19 204.314 1022.15 204.699C1024.11 205.084 1026.48 205.562 1029.25 206.134C1031.37 206.566 1033.45 206.869 1035.49 207.044C1037.53 207.196 1039.5 207.201 1041.4 207.061C1043.28 206.91 1045.07 206.601 1046.77 206.134C1048.44 205.656 1049.99 205.008 1051.41 204.192C1053.39 203.048 1054.88 201.707 1055.89 200.167C1056.92 198.615 1057.41 196.97 1057.35 195.232C1057.29 193.494 1056.62 191.756 1055.35 190.018C1054.05 188.268 1052.08 186.629 1049.44 185.1C1047.74 184.12 1045.76 183.187 1043.49 182.301C1041.21 181.402 1038.85 180.621 1036.4 179.956C1033.96 179.291 1031.63 178.812 1029.43 178.521L1023.97 187.76C1025.63 188.017 1027.26 188.361 1028.85 188.793C1030.47 189.213 1031.97 189.691 1033.34 190.228C1034.73 190.752 1035.95 191.312 1036.98 191.907C1037.97 192.479 1038.69 193.039 1039.16 193.587C1039.64 194.124 1039.85 194.637 1039.77 195.127C1039.71 195.605 1039.33 196.043 1038.64 196.44C1038.2 196.696 1037.71 196.871 1037.19 196.965C1036.66 197.035 1036.05 197.029 1035.34 196.947C1034.61 196.854 1033.72 196.69 1032.67 196.457C1031.62 196.224 1030.34 195.938 1028.82 195.6C1025.06 194.76 1021.67 194.083 1018.64 193.57C1015.61 193.056 1012.83 192.782 1010.3 192.747C1007.78 192.689 1005.41 192.922 1003.21 193.447C1001.01 193.972 998.855 194.841 996.754 196.055C993.399 197.991 991.328 200.12 990.54 202.442C989.731 204.752 990.166 207.126 991.843 209.564C993.52 212.002 996.38 214.388 1000.42 216.721ZM980.679 204.203L1010.32 163.571L997.956 156.431L927.573 173.545L941.94 181.84L953.247 178.778L971.615 189.382L966.311 195.909L980.679 204.203ZM978.769 180.002L969.494 174.648L986.013 170.466L978.769 180.002ZM922.877 170.834L972.891 141.961L959.554 134.262L913.723 140.001L941.609 123.902L928.272 116.203L878.258 145.076L891.595 152.776L937.426 147.036L909.54 163.135L922.877 170.834ZM866.398 138.229L916.412 109.356L901.014 100.467C897.457 98.4134 893.517 96.8735 889.192 95.8469C884.868 94.8203 880.422 94.307 875.855 94.307C871.268 94.2953 866.812 94.8028 862.488 95.8294C858.163 96.8326 854.243 98.3492 850.727 100.379C847.211 102.409 844.574 104.666 842.816 107.151C841.057 109.636 840.199 112.197 840.239 114.833C840.259 117.458 841.169 120.024 842.967 122.533C844.766 125.017 847.443 127.286 851 129.34L866.398 138.229ZM865.004 123.635L864.519 123.355C862.7 122.305 861.356 121.168 860.487 119.943C859.618 118.695 859.214 117.423 859.275 116.128C859.335 114.81 859.861 113.515 860.851 112.243C861.841 110.972 863.296 109.782 865.216 108.674C867.115 107.577 869.166 106.743 871.369 106.171C873.572 105.6 875.815 105.296 878.098 105.261C880.361 105.215 882.564 105.448 884.706 105.961C886.848 106.451 888.828 107.221 890.647 108.271L891.132 108.551L865.004 123.635ZM804.936 103.867C807.078 105.103 809.3 106.188 811.604 107.122C813.888 108.067 816.151 108.86 818.394 109.501C820.617 110.131 822.718 110.633 824.699 111.006C826.699 111.368 828.467 111.595 830.003 111.689L834.732 101.329C833.236 101.166 831.68 100.945 830.064 100.665C828.427 100.373 826.81 100.023 825.214 99.6146C823.618 99.2063 822.112 98.7455 820.698 98.2322C819.263 97.7072 818 97.1298 816.909 96.4998C815.898 95.9165 815.171 95.3565 814.726 94.8199C814.282 94.2833 814.13 93.7641 814.272 93.2625C814.433 92.7492 814.898 92.2709 815.666 91.8276C816.434 91.3843 817.293 91.1101 818.242 91.0052C819.192 90.8768 820.344 90.8885 821.698 91.0401C823.052 91.1918 824.709 91.4601 826.669 91.8451C828.629 92.2301 830.993 92.7084 833.762 93.28C835.884 93.7116 837.965 94.015 840.006 94.1899C842.047 94.3416 844.017 94.3474 845.917 94.2074C847.796 94.0558 849.584 93.7466 851.282 93.28C852.959 92.8017 854.505 92.1542 855.92 91.3376C857.9 90.1944 859.395 88.8528 860.406 87.3129C861.436 85.7613 861.921 84.1164 861.861 82.3782C861.8 80.64 861.133 78.9018 859.86 77.1636C858.567 75.4137 856.597 73.7746 853.949 72.2464C852.252 71.2664 850.272 70.3332 848.008 69.4466C845.725 68.5483 843.36 67.7667 840.915 67.1017C838.47 66.4368 836.146 65.9585 833.944 65.6668L828.488 74.9062C830.145 75.1629 831.771 75.507 833.368 75.9386C834.984 76.3586 836.48 76.8369 837.854 77.3735C839.248 77.8985 840.461 78.4585 841.491 79.0534C842.481 79.6251 843.209 80.185 843.674 80.7333C844.159 81.27 844.361 81.7833 844.28 82.2732C844.219 82.7515 843.845 83.189 843.158 83.5856C842.714 83.8423 842.229 84.0173 841.703 84.1106C841.178 84.1806 840.562 84.1748 839.854 84.0931C839.127 83.9998 838.238 83.8365 837.187 83.6031C836.136 83.3698 834.853 83.084 833.337 82.7457C829.579 81.9057 826.184 81.2291 823.153 80.7158C820.122 80.2025 817.343 79.9284 814.817 79.8934C812.291 79.835 809.927 80.0684 807.724 80.5933C805.522 81.1183 803.369 81.9874 801.268 83.2007C797.913 85.1372 795.842 87.2662 795.054 89.5877C794.246 91.8976 794.68 94.2716 796.357 96.7098C798.035 99.148 800.894 101.534 804.936 103.867ZM1083.72 382.64C1086.71 384.37 1090.09 385.66 1093.85 386.51C1097.61 387.36 1101.49 387.77 1105.49 387.74C1109.51 387.7 1113.42 387.23 1117.23 386.33C1121.04 385.41 1124.49 384.06 1127.57 382.28C1130.66 380.5 1132.99 378.515 1134.56 376.325C1136.14 374.115 1136.95 371.856 1137.01 369.546C1137.07 367.226 1136.37 364.981 1134.9 362.811C1133.43 360.641 1131.19 358.691 1128.2 356.962C1125.2 355.232 1121.82 353.942 1118.06 353.092C1114.31 352.242 1110.42 351.837 1106.4 351.877C1102.4 351.907 1098.49 352.382 1094.68 353.302C1090.87 354.202 1087.42 355.542 1084.34 357.322C1081.26 359.101 1078.93 361.096 1077.35 363.306C1075.78 365.496 1074.95 367.751 1074.88 370.071C1074.83 372.381 1075.54 374.62 1077.01 376.79C1078.49 378.96 1080.72 380.91 1083.72 382.64ZM1094.73 376.28C1093.33 375.47 1092.32 374.585 1091.69 373.625C1091.09 372.656 1090.87 371.651 1091.04 370.611C1091.22 369.571 1091.77 368.531 1092.71 367.491C1093.64 366.431 1094.96 365.411 1096.66 364.431C1098.35 363.451 1100.11 362.696 1101.93 362.166C1103.75 361.616 1105.56 361.291 1107.36 361.191C1109.16 361.091 1110.89 361.221 1112.56 361.581C1114.24 361.931 1115.78 362.511 1117.18 363.321C1118.58 364.131 1119.59 365.021 1120.2 365.991C1120.82 366.951 1121.04 367.951 1120.87 368.991C1120.7 370.031 1120.14 371.081 1119.21 372.141C1118.27 373.181 1116.96 374.19 1115.26 375.17C1113.56 376.15 1111.8 376.915 1109.98 377.465C1108.17 377.995 1106.36 378.31 1104.55 378.41C1102.75 378.51 1101.01 378.385 1099.33 378.035C1097.67 377.675 1096.14 377.09 1094.73 376.28ZM1056.25 365.824L1099.12 341.076L1073.45 326.257L1063.42 332.047L1080 341.616V338.916L1068.98 345.276L1073.66 345.276L1058.23 336.366L1048.2 342.156L1063.63 351.065V348.366L1044.82 359.225L1056.25 365.824ZM980.94 324.026C990.882 329.766 1000.76 332.758 1010.58 333.003C1020.44 333.231 1029.95 330.693 1039.14 325.391L1087.7 297.358L1067.69 285.809L1025.13 310.377C1019.74 313.492 1015.27 315.216 1011.72 315.548C1008.17 315.881 1004.46 314.927 1000.58 312.687C996.702 310.447 995.05 308.304 995.626 306.256C996.202 304.209 999.187 301.628 1004.58 298.513L1047.14 273.945L1027.13 262.395L978.575 290.428C969.391 295.731 964.996 301.225 965.39 306.912C965.784 312.564 970.967 318.269 980.94 324.026ZM915.965 286.516C919.178 288.371 922.512 289.998 925.968 291.398C929.393 292.816 932.788 294.006 936.152 294.968C939.486 295.913 942.639 296.666 945.609 297.226C948.61 297.768 951.263 298.109 953.566 298.249L960.659 282.71C958.416 282.465 956.082 282.133 953.657 281.713C951.202 281.275 948.777 280.75 946.382 280.138C943.988 279.525 941.73 278.834 939.608 278.064C937.456 277.277 935.561 276.411 933.924 275.466C932.409 274.591 931.318 273.751 930.651 272.946C929.984 272.141 929.756 271.362 929.969 270.61C930.211 269.84 930.908 269.122 932.06 268.457C933.212 267.792 934.5 267.381 935.925 267.224C937.35 267.031 939.077 267.049 941.108 267.276C943.139 267.504 945.625 267.906 948.565 268.484C951.505 269.061 955.051 269.779 959.204 270.636C962.387 271.283 965.509 271.738 968.57 272.001C971.632 272.228 974.587 272.237 977.437 272.027C980.256 271.8 982.938 271.336 985.484 270.636C988 269.919 990.319 268.947 992.441 267.722C995.411 266.008 997.654 263.995 999.17 261.685C1000.72 259.358 1001.44 256.891 1001.35 254.283C1001.26 251.676 1000.26 249.069 998.352 246.461C996.412 243.837 993.456 241.378 989.485 239.086C986.939 237.616 983.969 236.216 980.574 234.886C977.149 233.538 973.602 232.366 969.934 231.369C966.267 230.371 962.781 229.654 959.477 229.216L951.293 243.075C953.778 243.46 956.218 243.976 958.613 244.624C961.038 245.254 963.281 245.971 965.342 246.776C967.434 247.564 969.252 248.404 970.798 249.296C972.284 250.154 973.375 250.994 974.072 251.816C974.799 252.621 975.103 253.391 974.981 254.126C974.89 254.843 974.33 255.499 973.299 256.094C972.632 256.479 971.905 256.742 971.117 256.882C970.328 256.987 969.404 256.978 968.343 256.856C967.252 256.716 965.918 256.471 964.342 256.121C962.766 255.771 960.841 255.342 958.568 254.835C952.93 253.575 947.837 252.56 943.291 251.79C938.744 251.02 934.576 250.609 930.787 250.556C926.998 250.469 923.452 250.819 920.148 251.606C916.844 252.393 913.616 253.697 910.463 255.517C905.431 258.422 902.325 261.615 901.142 265.098C899.93 268.562 900.582 272.123 903.097 275.781C905.613 279.438 909.902 283.016 915.965 286.516ZM875.575 261.519L950.596 218.21L906.22 192.591L888.669 202.723L913.04 216.792L901.946 223.197L878.667 209.758L861.116 219.889L884.395 233.329L873.12 239.838L848.749 225.769L831.199 235.901L875.575 261.519ZM814.656 226.351L889.677 183.041L860.032 165.927C854.758 162.882 849.226 160.774 843.437 159.601C837.677 158.411 831.948 158.219 826.25 159.024C820.582 159.811 815.232 161.657 810.2 164.562C806.623 166.627 803.91 168.841 802.061 171.203C800.243 173.548 799.303 175.98 799.242 178.5C799.182 180.985 800.046 183.513 801.834 186.086L749.092 188.501L774.463 203.147L820.612 199.761L820.657 199.787L794.65 214.801L814.656 226.351ZM837.208 190.233L834.116 188.448C831.57 186.978 829.751 185.578 828.66 184.248C827.538 182.901 827.159 181.632 827.523 180.442C827.887 179.217 828.963 178.089 830.751 177.056C833.509 175.464 836.571 174.834 839.936 175.166C843.3 175.464 846.877 176.706 850.666 178.894L853.758 180.679L837.208 190.233ZM721.13 174.038C724.343 175.893 727.677 177.52 731.133 178.92C734.558 180.338 737.953 181.528 741.318 182.49C744.652 183.435 747.804 184.188 750.775 184.748C753.776 185.29 756.428 185.631 758.732 185.771L765.825 170.232C763.581 169.987 761.247 169.655 758.823 169.235C756.367 168.797 753.942 168.272 751.548 167.66C749.153 167.047 746.895 166.356 744.773 165.586C742.621 164.799 740.727 163.933 739.09 162.988C737.574 162.113 736.483 161.273 735.816 160.468C735.149 159.663 734.922 158.884 735.134 158.132C735.377 157.362 736.074 156.644 737.226 155.979C738.377 155.314 739.666 154.903 741.09 154.746C742.515 154.553 744.243 154.571 746.274 154.798C748.304 155.026 750.79 155.428 753.73 156.006C756.67 156.583 760.217 157.301 764.37 158.158C767.552 158.805 770.674 159.26 773.736 159.523C776.797 159.75 779.753 159.759 782.602 159.549C785.421 159.322 788.103 158.858 790.65 158.158C793.166 157.441 795.484 156.469 797.606 155.244C800.577 153.53 802.82 151.517 804.335 149.207C805.881 146.88 806.609 144.413 806.518 141.805C806.427 139.198 805.427 136.591 803.517 133.983C801.577 131.358 798.622 128.9 794.651 126.608C792.105 125.138 789.134 123.738 785.739 122.408C782.314 121.06 778.768 119.888 775.1 118.891C771.432 117.893 767.946 117.176 764.642 116.738L756.458 130.597C758.944 130.982 761.384 131.498 763.778 132.146C766.203 132.776 768.446 133.493 770.508 134.298C772.599 135.086 774.418 135.926 775.964 136.818C777.449 137.676 778.54 138.516 779.237 139.338C779.965 140.143 780.268 140.913 780.147 141.648C780.056 142.365 779.495 143.021 778.464 143.616C777.798 144.001 777.07 144.264 776.282 144.404C775.494 144.509 774.569 144.5 773.508 144.378C772.417 144.238 771.084 143.993 769.507 143.643C767.931 143.293 766.006 142.864 763.733 142.357C758.095 141.097 753.003 140.082 748.456 139.312C743.909 138.542 739.741 138.131 735.952 138.078C732.164 137.991 728.617 138.341 725.313 139.128C722.009 139.915 718.781 141.219 715.629 143.039C710.597 145.944 707.49 149.137 706.308 152.62C705.095 156.084 705.747 159.645 708.263 163.303C710.779 166.96 715.068 170.538 721.13 174.038Z" fill="url(#paint0_linear_625_384)" fill-opacity="0.15"/>
<path d="M1808.73 452C1817.93 457.31 1828.94 460.111 1841.76 460.403L1854.85 443.394C1846.43 443.034 1840.78 442.022 1837.9 440.357C1835.6 439.03 1834.74 437.41 1835.33 435.497C1835.87 433.562 1837.78 431.65 1841.06 429.76L1903.96 393.448L1878.24 378.599L1808.9 418.623C1799.67 423.956 1795.09 429.569 1795.17 435.464C1795.24 441.313 1799.76 446.825 1808.73 452ZM1717.3 399.221C1724.05 403.113 1731.65 406.016 1740.1 407.928C1748.56 409.84 1757.29 410.763 1766.29 410.695C1775.33 410.605 1784.14 409.548 1792.72 407.523C1801.29 405.453 1809.04 402.416 1815.98 398.411C1822.92 394.406 1828.16 389.94 1831.71 385.013C1835.25 380.041 1837.09 374.956 1837.2 369.759C1837.36 364.54 1835.78 359.489 1832.47 354.606C1829.15 349.724 1824.13 345.337 1817.38 341.445C1810.64 337.553 1803.04 334.65 1794.59 332.738C1786.13 330.826 1777.38 329.914 1768.34 330.004C1759.34 330.072 1750.55 331.14 1741.97 333.21C1733.4 335.235 1725.64 338.25 1718.71 342.255C1711.77 346.259 1706.53 350.748 1702.98 355.72C1699.44 360.647 1697.58 365.721 1697.43 370.94C1697.31 376.138 1698.91 381.177 1702.22 386.059C1705.54 390.942 1710.56 395.329 1717.3 399.221ZM1742.09 384.912C1738.93 383.09 1736.65 381.098 1735.25 378.939C1733.89 376.756 1733.4 374.495 1733.79 372.155C1734.18 369.815 1735.43 367.476 1737.53 365.136C1739.64 362.751 1742.6 360.456 1746.42 358.251C1750.24 356.046 1754.19 354.348 1758.28 353.155C1762.38 351.918 1766.45 351.187 1770.5 350.962C1774.55 350.737 1778.45 351.029 1782.19 351.839C1785.97 352.627 1789.44 353.931 1792.6 355.754C1795.76 357.576 1798.02 359.579 1799.38 361.761C1800.78 363.921 1801.29 366.171 1800.9 368.511C1800.51 370.85 1799.26 373.213 1797.16 375.598C1795.05 377.937 1792.09 380.21 1788.27 382.415C1784.45 384.619 1780.5 386.341 1776.41 387.578C1772.31 388.77 1768.24 389.479 1764.19 389.704C1760.13 389.929 1756.22 389.648 1752.44 388.86C1748.7 388.051 1745.25 386.734 1742.09 384.912ZM1655.51 361.386L1751.96 305.702L1726.24 290.853L1629.79 346.537L1655.51 361.386ZM1606.87 333.307L1703.33 277.623L1677.6 262.774L1589.22 273.843L1643 242.795L1617.27 227.946L1520.82 283.63L1546.54 298.479L1634.93 287.41L1581.15 318.458L1606.87 333.307ZM1488.88 265.19L1532.66 239.912L1545.14 247.111L1558.51 239.392L1518.32 216.193L1504.95 223.913L1517.42 231.112L1473.63 256.391L1488.88 265.19ZM1431.68 233.448C1435.67 235.754 1440.17 237.474 1445.19 238.607C1450.2 239.741 1455.37 240.287 1460.71 240.247C1466.06 240.194 1471.28 239.567 1476.36 238.367C1481.44 237.141 1486.04 235.341 1490.15 232.968C1494.26 230.594 1497.37 227.948 1499.47 225.028C1501.57 222.082 1502.66 219.069 1502.73 215.989C1502.82 212.896 1501.88 209.903 1499.92 207.009C1497.96 204.116 1494.98 201.516 1490.98 199.21C1486.99 196.903 1482.48 195.183 1477.47 194.05C1472.46 192.917 1467.28 192.377 1461.92 192.43C1456.58 192.47 1451.38 193.104 1446.29 194.33C1441.21 195.53 1436.62 197.317 1432.51 199.69C1428.4 202.063 1425.29 204.723 1423.19 207.669C1421.09 210.589 1419.99 213.596 1419.9 216.689C1419.83 219.769 1420.78 222.755 1422.74 225.648C1424.7 228.541 1427.68 231.141 1431.68 233.448ZM1446.36 224.968C1444.49 223.888 1443.14 222.708 1442.31 221.428C1441.5 220.135 1441.21 218.795 1441.44 217.409C1441.68 216.022 1442.41 214.636 1443.66 213.249C1444.91 211.836 1446.66 210.476 1448.93 209.169C1451.19 207.863 1453.53 206.856 1455.96 206.149C1458.38 205.416 1460.8 204.983 1463.2 204.85C1465.6 204.716 1467.91 204.89 1470.13 205.369C1472.37 205.836 1474.42 206.609 1476.29 207.689C1478.17 208.769 1479.5 209.956 1480.31 211.249C1481.14 212.529 1481.44 213.862 1481.21 215.249C1480.98 216.635 1480.24 218.035 1479 219.449C1477.75 220.835 1475.99 222.182 1473.73 223.488C1471.47 224.795 1469.12 225.815 1466.7 226.548C1464.27 227.255 1461.86 227.675 1459.46 227.808C1457.06 227.941 1454.74 227.775 1452.5 227.308C1450.28 226.828 1448.23 226.048 1446.36 224.968ZM1754.39 496.466L1792.7 474.347L1803.62 480.647L1815.32 473.892L1780.16 453.594L1768.46 460.348L1779.37 466.648L1741.05 488.766L1754.39 496.466ZM1724.51 479.218L1774.53 450.345L1761.19 442.645L1742.09 453.669L1729.24 446.25L1748.34 435.226L1735 427.526L1684.99 456.399L1698.32 464.099L1717.54 453.004L1730.39 460.424L1711.18 471.518L1724.51 479.218ZM1651 437.897C1654.49 439.916 1658.43 441.421 1662.82 442.412C1667.21 443.404 1671.73 443.882 1676.4 443.847C1681.09 443.8 1685.65 443.252 1690.1 442.202C1694.55 441.129 1698.57 439.554 1702.16 437.477C1705.76 435.401 1708.48 433.085 1710.32 430.53C1712.16 427.952 1713.11 425.316 1713.17 422.621C1713.25 419.914 1712.43 417.295 1710.71 414.764C1708.99 412.232 1706.39 409.958 1702.89 407.939C1699.4 405.921 1695.46 404.416 1691.07 403.425C1686.69 402.433 1682.15 401.961 1677.46 402.007C1672.79 402.042 1668.24 402.596 1663.79 403.67C1659.34 404.72 1655.32 406.283 1651.73 408.359C1648.13 410.436 1645.41 412.763 1643.57 415.341C1641.73 417.896 1640.77 420.527 1640.69 423.233C1640.63 425.928 1641.46 428.541 1643.18 431.073C1644.9 433.604 1647.5 435.879 1651 437.897ZM1663.85 430.478C1662.21 429.533 1661.03 428.501 1660.3 427.381C1659.6 426.249 1659.34 425.077 1659.55 423.863C1659.75 422.65 1660.4 421.437 1661.49 420.224C1662.58 418.987 1664.11 417.797 1666.09 416.654C1668.07 415.511 1670.13 414.63 1672.25 414.011C1674.37 413.37 1676.48 412.991 1678.58 412.874C1680.68 412.757 1682.7 412.909 1684.64 413.329C1686.6 413.737 1688.4 414.414 1690.04 415.359C1691.68 416.304 1692.85 417.342 1693.56 418.474C1694.28 419.594 1694.55 420.76 1694.34 421.973C1694.14 423.187 1693.5 424.412 1692.4 425.648C1691.31 426.861 1689.78 428.04 1687.8 429.183C1685.82 430.326 1683.77 431.219 1681.64 431.86C1679.52 432.479 1677.41 432.846 1675.31 432.963C1673.21 433.079 1671.18 432.934 1669.22 432.525C1667.28 432.105 1665.49 431.423 1663.85 430.478ZM1598.74 407.727C1605.37 411.554 1611.95 413.549 1618.5 413.712C1625.07 413.864 1631.41 412.172 1637.54 408.637L1669.91 389.949L1656.57 382.249L1628.2 398.628C1624.6 400.705 1621.62 401.854 1619.26 402.075C1616.89 402.297 1614.42 401.661 1611.83 400.168C1609.25 398.675 1608.14 397.246 1608.53 395.881C1608.91 394.516 1610.9 392.795 1614.5 390.719L1642.87 374.34L1629.53 366.64L1597.16 385.329C1591.04 388.864 1588.11 392.527 1588.37 396.318C1588.63 400.086 1592.09 403.889 1598.74 407.727ZM1555.42 382.721C1557.56 383.957 1559.79 385.042 1562.09 385.976C1564.37 386.921 1566.64 387.714 1568.88 388.355C1571.1 388.985 1573.2 389.487 1575.18 389.86C1577.19 390.222 1578.95 390.449 1580.49 390.543L1585.22 380.183C1583.72 380.02 1582.17 379.798 1580.55 379.518C1578.91 379.227 1577.3 378.877 1575.7 378.469C1574.1 378.06 1572.6 377.599 1571.18 377.086C1569.75 376.561 1568.49 375.984 1567.39 375.354C1566.38 374.77 1565.66 374.21 1565.21 373.674C1564.77 373.137 1564.62 372.618 1564.76 372.116C1564.92 371.603 1565.38 371.125 1566.15 370.682C1566.92 370.238 1567.78 369.964 1568.73 369.859C1569.68 369.731 1570.83 369.742 1572.18 369.894C1573.54 370.046 1575.19 370.314 1577.15 370.699C1579.11 371.084 1581.48 371.562 1584.25 372.134C1586.37 372.566 1588.45 372.869 1590.49 373.044C1592.53 373.196 1594.5 373.201 1596.4 373.061C1598.28 372.91 1600.07 372.601 1601.77 372.134C1603.44 371.656 1604.99 371.008 1606.41 370.192C1608.39 369.048 1609.88 367.707 1610.89 366.167C1611.92 364.615 1612.41 362.97 1612.35 361.232C1612.29 359.494 1611.62 357.756 1610.35 356.018C1609.05 354.268 1607.08 352.629 1604.44 351.1C1602.74 350.12 1600.76 349.187 1598.49 348.301C1596.21 347.402 1593.85 346.621 1591.4 345.956C1588.96 345.291 1586.63 344.812 1584.43 344.521L1578.97 353.76C1580.63 354.017 1582.26 354.361 1583.85 354.793C1585.47 355.213 1586.97 355.691 1588.34 356.228C1589.73 356.752 1590.95 357.312 1591.98 357.907C1592.97 358.479 1593.69 359.039 1594.16 359.587C1594.64 360.124 1594.85 360.637 1594.77 361.127C1594.71 361.605 1594.33 362.043 1593.64 362.44C1593.2 362.696 1592.71 362.871 1592.19 362.965C1591.66 363.035 1591.05 363.029 1590.34 362.947C1589.61 362.854 1588.72 362.69 1587.67 362.457C1586.62 362.224 1585.34 361.938 1583.82 361.6C1580.06 360.76 1576.67 360.083 1573.64 359.57C1570.61 359.056 1567.83 358.782 1565.3 358.747C1562.78 358.689 1560.41 358.922 1558.21 359.447C1556.01 359.972 1553.86 360.841 1551.75 362.055C1548.4 363.991 1546.33 366.12 1545.54 368.442C1544.73 370.752 1545.17 373.126 1546.84 375.564C1548.52 378.002 1551.38 380.388 1555.42 382.721ZM1535.68 370.203L1565.32 329.571L1552.96 322.431L1482.57 339.545L1496.94 347.84L1508.25 344.778L1526.62 355.382L1521.31 361.909L1535.68 370.203ZM1533.77 346.002L1524.49 340.648L1541.01 336.466L1533.77 346.002ZM1477.88 336.834L1527.89 307.961L1514.55 300.262L1468.72 306.001L1496.61 289.902L1483.27 282.203L1433.26 311.076L1446.6 318.776L1492.43 313.036L1464.54 329.135L1477.88 336.834ZM1421.4 304.229L1471.41 275.356L1456.01 266.467C1452.46 264.413 1448.52 262.873 1444.19 261.847C1439.87 260.82 1435.42 260.307 1430.86 260.307C1426.27 260.295 1421.81 260.803 1417.49 261.829C1413.16 262.833 1409.24 264.349 1405.73 266.379C1402.21 268.409 1399.57 270.666 1397.82 273.151C1396.06 275.636 1395.2 278.197 1395.24 280.833C1395.26 283.458 1396.17 286.024 1397.97 288.533C1399.77 291.017 1402.44 293.286 1406 295.34L1421.4 304.229ZM1420 289.635L1419.52 289.355C1417.7 288.305 1416.36 287.168 1415.49 285.943C1414.62 284.695 1414.21 283.423 1414.27 282.128C1414.34 280.81 1414.86 279.515 1415.85 278.243C1416.84 276.972 1418.3 275.782 1420.22 274.674C1422.12 273.577 1424.17 272.743 1426.37 272.171C1428.57 271.6 1430.81 271.296 1433.1 271.261C1435.36 271.215 1437.56 271.448 1439.71 271.961C1441.85 272.451 1443.83 273.221 1445.65 274.271L1446.13 274.551L1420 289.635ZM1359.94 269.867C1362.08 271.103 1364.3 272.188 1366.6 273.122C1368.89 274.067 1371.15 274.86 1373.39 275.501C1375.62 276.131 1377.72 276.633 1379.7 277.006C1381.7 277.368 1383.47 277.595 1385 277.689L1389.73 267.329C1388.24 267.166 1386.68 266.945 1385.06 266.665C1383.43 266.373 1381.81 266.023 1380.21 265.615C1378.62 265.206 1377.11 264.745 1375.7 264.232C1374.26 263.707 1373 263.13 1371.91 262.5C1370.9 261.916 1370.17 261.357 1369.73 260.82C1369.28 260.283 1369.13 259.764 1369.27 259.263C1369.43 258.749 1369.9 258.271 1370.67 257.828C1371.43 257.384 1372.29 257.11 1373.24 257.005C1374.19 256.877 1375.34 256.888 1376.7 257.04C1378.05 257.192 1379.71 257.46 1381.67 257.845C1383.63 258.23 1385.99 258.708 1388.76 259.28C1390.88 259.712 1392.97 260.015 1395.01 260.19C1397.05 260.342 1399.02 260.347 1400.92 260.207C1402.8 260.056 1404.58 259.747 1406.28 259.28C1407.96 258.802 1409.51 258.154 1410.92 257.338C1412.9 256.194 1414.4 254.853 1415.41 253.313C1416.44 251.761 1416.92 250.116 1416.86 248.378C1416.8 246.64 1416.13 244.902 1414.86 243.164C1413.57 241.414 1411.6 239.775 1408.95 238.246C1407.25 237.266 1405.27 236.333 1403.01 235.447C1400.72 234.548 1398.36 233.767 1395.92 233.102C1393.47 232.437 1391.15 231.958 1388.94 231.667L1383.49 240.906C1385.14 241.163 1386.77 241.507 1388.37 241.939C1389.98 242.359 1391.48 242.837 1392.85 243.374C1394.25 243.899 1395.46 244.458 1396.49 245.053C1397.48 245.625 1398.21 246.185 1398.67 246.733C1399.16 247.27 1399.36 247.783 1399.28 248.273C1399.22 248.752 1398.85 249.189 1398.16 249.586C1397.71 249.842 1397.23 250.017 1396.7 250.111C1396.18 250.181 1395.56 250.175 1394.85 250.093C1394.13 250 1393.24 249.836 1392.19 249.603C1391.14 249.37 1389.85 249.084 1388.34 248.746C1384.58 247.906 1381.18 247.229 1378.15 246.716C1375.12 246.203 1372.34 245.928 1369.82 245.893C1367.29 245.835 1364.93 246.068 1362.72 246.593C1360.52 247.118 1358.37 247.987 1356.27 249.201C1352.91 251.137 1350.84 253.266 1350.05 255.588C1349.25 257.898 1349.68 260.272 1351.36 262.71C1353.03 265.148 1355.89 267.534 1359.94 269.867ZM1638.72 548.64C1641.71 550.37 1645.09 551.66 1648.85 552.51C1652.61 553.36 1656.49 553.77 1660.49 553.74C1664.51 553.7 1668.42 553.23 1672.23 552.33C1676.04 551.41 1679.49 550.06 1682.57 548.28C1685.66 546.5 1687.99 544.515 1689.56 542.325C1691.14 540.115 1691.95 537.856 1692.01 535.546C1692.07 533.226 1691.37 530.981 1689.9 528.811C1688.43 526.641 1686.19 524.691 1683.2 522.962C1680.2 521.232 1676.82 519.942 1673.06 519.092C1669.31 518.242 1665.42 517.837 1661.4 517.877C1657.4 517.907 1653.49 518.382 1649.68 519.302C1645.87 520.202 1642.42 521.542 1639.34 523.322C1636.26 525.101 1633.93 527.096 1632.35 529.306C1630.78 531.496 1629.95 533.751 1629.88 536.071C1629.83 538.381 1630.54 540.62 1632.01 542.79C1633.49 544.96 1635.72 546.91 1638.72 548.64ZM1649.73 542.28C1648.33 541.47 1647.32 540.585 1646.69 539.625C1646.09 538.656 1645.87 537.651 1646.04 536.611C1646.22 535.571 1646.77 534.531 1647.71 533.491C1648.64 532.431 1649.96 531.411 1651.66 530.431C1653.35 529.451 1655.11 528.696 1656.93 528.166C1658.75 527.616 1660.56 527.291 1662.36 527.191C1664.16 527.091 1665.89 527.221 1667.56 527.581C1669.24 527.931 1670.78 528.511 1672.18 529.321C1673.58 530.131 1674.59 531.021 1675.2 531.991C1675.82 532.951 1676.04 533.951 1675.87 534.991C1675.7 536.031 1675.14 537.081 1674.21 538.141C1673.27 539.181 1671.96 540.19 1670.26 541.17C1668.56 542.15 1666.8 542.915 1664.98 543.465C1663.17 543.995 1661.36 544.31 1659.55 544.41C1657.75 544.51 1656.01 544.385 1654.33 544.035C1652.67 543.675 1651.14 543.09 1649.73 542.28ZM1611.25 531.824L1654.12 507.076L1628.45 492.257L1618.42 498.047L1635 507.616V504.916L1623.98 511.276L1628.66 511.276L1613.23 502.366L1603.2 508.156L1618.63 517.065V514.366L1599.82 525.225L1611.25 531.824ZM1535.94 490.026C1545.88 495.766 1555.76 498.758 1565.58 499.003C1575.44 499.231 1584.95 496.693 1594.14 491.391L1642.7 463.358L1622.69 451.809L1580.13 476.377C1574.74 479.492 1570.27 481.216 1566.72 481.548C1563.17 481.881 1559.46 480.927 1555.58 478.687C1551.7 476.447 1550.05 474.304 1550.63 472.256C1551.2 470.209 1554.19 467.628 1559.58 464.513L1602.14 439.945L1582.13 428.395L1533.58 456.428C1524.39 461.731 1520 467.225 1520.39 472.912C1520.78 478.564 1525.97 484.269 1535.94 490.026ZM1470.96 452.516C1474.18 454.371 1477.51 455.998 1480.97 457.398C1484.39 458.816 1487.79 460.006 1491.15 460.968C1494.49 461.913 1497.64 462.666 1500.61 463.226C1503.61 463.768 1506.26 464.109 1508.57 464.249L1515.66 448.71C1513.42 448.465 1511.08 448.133 1508.66 447.713C1506.2 447.275 1503.78 446.75 1501.38 446.138C1498.99 445.525 1496.73 444.834 1494.61 444.064C1492.46 443.277 1490.56 442.411 1488.92 441.466C1487.41 440.591 1486.32 439.751 1485.65 438.946C1484.98 438.141 1484.76 437.362 1484.97 436.61C1485.21 435.84 1485.91 435.122 1487.06 434.457C1488.21 433.792 1489.5 433.381 1490.92 433.224C1492.35 433.031 1494.08 433.049 1496.11 433.276C1498.14 433.504 1500.62 433.906 1503.56 434.484C1506.51 435.061 1510.05 435.779 1514.2 436.636C1517.39 437.283 1520.51 437.738 1523.57 438.001C1526.63 438.228 1529.59 438.237 1532.44 438.027C1535.26 437.8 1537.94 437.336 1540.48 436.636C1543 435.919 1545.32 434.947 1547.44 433.722C1550.41 432.008 1552.65 429.995 1554.17 427.685C1555.72 425.358 1556.44 422.891 1556.35 420.283C1556.26 417.676 1555.26 415.069 1553.35 412.461C1551.41 409.837 1548.46 407.378 1544.49 405.086C1541.94 403.616 1538.97 402.216 1535.57 400.886C1532.15 399.538 1528.6 398.366 1524.93 397.369C1521.27 396.371 1517.78 395.654 1514.48 395.216L1506.29 409.075C1508.78 409.46 1511.22 409.976 1513.61 410.624C1516.04 411.254 1518.28 411.971 1520.34 412.776C1522.43 413.564 1524.25 414.404 1525.8 415.296C1527.28 416.154 1528.37 416.994 1529.07 417.816C1529.8 418.621 1530.1 419.391 1529.98 420.126C1529.89 420.843 1529.33 421.499 1528.3 422.094C1527.63 422.479 1526.9 422.742 1526.12 422.882C1525.33 422.987 1524.4 422.978 1523.34 422.856C1522.25 422.716 1520.92 422.471 1519.34 422.121C1517.77 421.771 1515.84 421.342 1513.57 420.835C1507.93 419.575 1502.84 418.56 1498.29 417.79C1493.74 417.02 1489.58 416.609 1485.79 416.556C1482 416.469 1478.45 416.819 1475.15 417.606C1471.84 418.393 1468.62 419.697 1465.46 421.517C1460.43 424.422 1457.32 427.615 1456.14 431.098C1454.93 434.562 1455.58 438.123 1458.1 441.781C1460.61 445.438 1464.9 449.016 1470.96 452.516ZM1430.57 427.519L1505.6 384.21L1461.22 358.591L1443.67 368.723L1468.04 382.792L1456.95 389.197L1433.67 375.758L1416.12 385.889L1439.4 399.329L1428.12 405.838L1403.75 391.769L1386.2 401.901L1430.57 427.519ZM1369.66 392.351L1444.68 349.041L1415.03 331.927C1409.76 328.882 1404.23 326.774 1398.44 325.601C1392.68 324.411 1386.95 324.219 1381.25 325.024C1375.58 325.811 1370.23 327.657 1365.2 330.562C1361.62 332.627 1358.91 334.841 1357.06 337.203C1355.24 339.548 1354.3 341.98 1354.24 344.5C1354.18 346.985 1355.05 349.513 1356.83 352.086L1304.09 354.501L1329.46 369.147L1375.61 365.761L1375.66 365.787L1349.65 380.801L1369.66 392.351ZM1392.21 356.233L1389.12 354.448C1386.57 352.978 1384.75 351.578 1383.66 350.248C1382.54 348.901 1382.16 347.632 1382.52 346.442C1382.89 345.217 1383.96 344.089 1385.75 343.056C1388.51 341.464 1391.57 340.834 1394.94 341.166C1398.3 341.464 1401.88 342.706 1405.67 344.894L1408.76 346.679L1392.21 356.233ZM1276.13 340.038C1279.34 341.893 1282.68 343.52 1286.13 344.92C1289.56 346.338 1292.95 347.528 1296.32 348.49C1299.65 349.435 1302.8 350.188 1305.77 350.748C1308.78 351.29 1311.43 351.631 1313.73 351.771L1320.82 336.232C1318.58 335.987 1316.25 335.655 1313.82 335.235C1311.37 334.797 1308.94 334.272 1306.55 333.66C1304.15 333.047 1301.89 332.356 1299.77 331.586C1297.62 330.799 1295.73 329.933 1294.09 328.988C1292.57 328.113 1291.48 327.273 1290.82 326.468C1290.15 325.663 1289.92 324.884 1290.13 324.132C1290.38 323.362 1291.07 322.644 1292.23 321.979C1293.38 321.314 1294.67 320.903 1296.09 320.746C1297.51 320.553 1299.24 320.571 1301.27 320.798C1303.3 321.026 1305.79 321.428 1308.73 322.006C1311.67 322.583 1315.22 323.301 1319.37 324.158C1322.55 324.805 1325.67 325.26 1328.74 325.523C1331.8 325.75 1334.75 325.759 1337.6 325.549C1340.42 325.322 1343.1 324.858 1345.65 324.158C1348.17 323.441 1350.48 322.469 1352.61 321.244C1355.58 319.53 1357.82 317.517 1359.34 315.207C1360.88 312.88 1361.61 310.413 1361.52 307.805C1361.43 305.198 1360.43 302.591 1358.52 299.983C1356.58 297.358 1353.62 294.9 1349.65 292.608C1347.1 291.138 1344.13 289.738 1340.74 288.408C1337.31 287.06 1333.77 285.888 1330.1 284.891C1326.43 283.893 1322.95 283.176 1319.64 282.738L1311.46 296.597C1313.94 296.982 1316.38 297.498 1318.78 298.146C1321.2 298.776 1323.45 299.493 1325.51 300.298C1327.6 301.086 1329.42 301.926 1330.96 302.818C1332.45 303.676 1333.54 304.516 1334.24 305.338C1334.96 306.143 1335.27 306.913 1335.15 307.648C1335.06 308.365 1334.5 309.021 1333.46 309.616C1332.8 310.001 1332.07 310.264 1331.28 310.404C1330.49 310.509 1329.57 310.5 1328.51 310.378C1327.42 310.238 1326.08 309.993 1324.51 309.643C1322.93 309.293 1321.01 308.864 1318.73 308.357C1313.1 307.097 1308 306.082 1303.46 305.312C1298.91 304.542 1294.74 304.131 1290.95 304.078C1287.16 303.991 1283.62 304.341 1280.31 305.128C1277.01 305.915 1273.78 307.219 1270.63 309.039C1265.6 311.944 1262.49 315.137 1261.31 318.62C1260.1 322.084 1260.75 325.645 1263.26 329.303C1265.78 332.96 1270.07 336.538 1276.13 340.038Z" fill="url(#paint1_linear_625_384)" fill-opacity="0.15"/>
<path d="M1518.73 109C1527.93 114.31 1538.94 117.111 1551.76 117.403L1564.85 100.394C1556.43 100.034 1550.78 99.0219 1547.9 97.357C1545.6 96.0296 1544.74 94.4097 1545.33 92.4973C1545.87 90.5624 1547.78 88.65 1551.06 86.7602L1613.96 50.4475L1588.24 35.5985L1518.9 75.6234C1509.67 80.9555 1505.09 86.5689 1505.17 92.4635C1505.24 98.3132 1509.76 103.825 1518.73 109ZM1427.3 56.221C1434.05 60.1133 1441.65 63.0156 1450.1 64.928C1458.56 66.8404 1467.29 67.7628 1476.29 67.6953C1485.33 67.6053 1494.14 66.5479 1502.72 64.523C1511.29 62.4531 1519.04 59.4158 1525.98 55.4111C1532.92 51.4064 1538.16 46.9404 1541.71 42.0132C1545.25 37.041 1547.09 31.9564 1547.2 26.7592C1547.36 21.5396 1545.78 16.4886 1542.47 11.6065C1539.15 6.72427 1534.13 2.33706 1527.38 -1.55519C1520.64 -5.44743 1513.04 -8.34974 1504.59 -10.2621C1496.13 -12.1745 1487.38 -13.0857 1478.34 -12.9957C1469.34 -12.9282 1460.55 -11.8595 1451.97 -9.78965C1443.4 -7.76478 1435.64 -4.74998 1428.71 -0.74524C1421.77 3.2595 1416.53 7.74796 1412.98 12.7201C1409.44 17.6473 1407.58 22.7207 1407.43 27.9404C1407.31 33.1376 1408.91 38.1772 1412.22 43.0594C1415.54 47.9416 1420.56 52.3288 1427.3 56.221ZM1452.09 41.912C1448.93 40.0896 1446.65 38.0985 1445.25 35.9386C1443.89 33.7563 1443.4 31.4952 1443.79 29.1553C1444.18 26.8155 1445.43 24.4756 1447.53 22.1358C1449.64 19.7509 1452.6 17.4561 1456.42 15.2512C1460.24 13.0464 1464.19 11.3477 1468.28 10.1553C1472.38 8.91788 1476.45 8.18668 1480.5 7.96169C1484.55 7.73671 1488.45 8.02919 1492.19 8.83914C1495.97 9.62659 1499.44 10.9315 1502.6 12.7539C1505.76 14.5763 1508.02 16.5786 1509.38 18.761C1510.78 20.9208 1511.29 23.1707 1510.9 25.5105C1510.51 27.8504 1509.26 30.2127 1507.16 32.5976C1505.05 34.9374 1502.09 37.2098 1498.27 39.4146C1494.45 41.6195 1490.5 43.3406 1486.41 44.5781C1482.31 45.7705 1478.24 46.4792 1474.19 46.7042C1470.13 46.9292 1466.22 46.6479 1462.44 45.8605C1458.7 45.0505 1455.25 43.7344 1452.09 41.912ZM1365.51 18.3861L1461.96 -37.2978L1436.24 -52.1468L1339.79 3.53704L1365.51 18.3861ZM1316.87 -9.69315L1413.33 -65.377L1387.6 -80.226L1299.22 -69.1568L1353 -100.205L1327.27 -115.054L1230.82 -59.3699L1256.54 -44.5209L1344.93 -55.5902L1291.15 -24.5422L1316.87 -9.69315ZM1198.88 -77.81L1242.66 -103.088L1255.14 -95.8889L1268.51 -103.608L1228.32 -126.807L1214.95 -119.087L1227.42 -111.888L1183.63 -86.6095L1198.88 -77.81ZM1141.68 -109.552C1145.67 -107.246 1150.17 -105.526 1155.19 -104.393C1160.2 -103.259 1165.37 -102.713 1170.71 -102.753C1176.06 -102.806 1181.28 -103.433 1186.36 -104.633C1191.44 -105.859 1196.04 -107.659 1200.15 -110.032C1204.26 -112.406 1207.37 -115.052 1209.47 -117.972C1211.57 -120.918 1212.66 -123.931 1212.73 -127.011C1212.82 -130.104 1211.88 -133.097 1209.92 -135.991C1207.96 -138.884 1204.98 -141.484 1200.98 -143.79C1196.99 -146.097 1192.48 -147.817 1187.47 -148.95C1182.46 -150.083 1177.28 -150.623 1171.92 -150.57C1166.58 -150.53 1161.38 -149.896 1156.29 -148.67C1151.21 -147.47 1146.62 -145.683 1142.51 -143.31C1138.4 -140.937 1135.29 -138.277 1133.19 -135.331C1131.09 -132.411 1129.99 -129.404 1129.9 -126.311C1129.83 -123.231 1130.78 -120.245 1132.74 -117.352C1134.7 -114.459 1137.68 -111.859 1141.68 -109.552ZM1156.36 -118.032C1154.49 -119.112 1153.14 -120.292 1152.31 -121.572C1151.5 -122.865 1151.21 -124.205 1151.44 -125.591C1151.68 -126.978 1152.41 -128.364 1153.66 -129.751C1154.91 -131.164 1156.66 -132.524 1158.93 -133.831C1161.19 -135.137 1163.53 -136.144 1165.96 -136.851C1168.38 -137.584 1170.8 -138.017 1173.2 -138.15C1175.6 -138.284 1177.91 -138.11 1180.13 -137.631C1182.37 -137.164 1184.42 -136.391 1186.29 -135.311C1188.17 -134.231 1189.5 -133.044 1190.31 -131.751C1191.14 -130.471 1191.44 -129.138 1191.21 -127.751C1190.98 -126.365 1190.24 -124.965 1189 -123.551C1187.75 -122.165 1185.99 -120.818 1183.73 -119.512C1181.47 -118.205 1179.12 -117.185 1176.7 -116.452C1174.27 -115.745 1171.86 -115.325 1169.46 -115.192C1167.06 -115.059 1164.74 -115.225 1162.5 -115.692C1160.28 -116.172 1158.23 -116.952 1156.36 -118.032ZM1464.39 153.466L1502.7 131.347L1513.62 137.647L1525.32 130.892L1490.16 110.594L1478.46 117.348L1489.37 123.648L1451.05 145.766L1464.39 153.466ZM1434.51 136.218L1484.53 107.345L1471.19 99.6451L1452.09 110.669L1439.24 103.25L1458.34 92.2255L1445 84.5261L1394.99 113.399L1408.32 121.099L1427.54 110.004L1440.39 117.424L1421.18 128.518L1434.51 136.218ZM1361 94.8974C1364.49 96.9156 1368.43 98.4205 1372.82 99.4121C1377.21 100.404 1381.73 100.882 1386.4 100.847C1391.09 100.8 1395.65 100.252 1400.1 99.2021C1404.55 98.1289 1408.57 96.554 1412.16 94.4774C1415.76 92.4009 1418.48 90.0852 1420.32 87.5304C1422.16 84.9522 1423.11 82.3157 1423.17 79.6209C1423.25 76.9144 1422.43 74.2954 1420.71 71.7639C1418.99 69.2324 1416.39 66.9576 1412.89 64.9394C1409.4 62.9212 1405.46 61.4163 1401.07 60.4247C1396.69 59.4331 1392.15 58.9606 1387.46 59.0072C1382.79 59.0422 1378.24 59.5964 1373.79 60.6696C1369.34 61.7196 1365.32 63.2828 1361.73 65.3593C1358.13 67.4359 1355.41 69.7632 1353.57 72.3414C1351.73 74.8962 1350.77 77.5269 1350.69 80.2334C1350.63 82.9282 1351.46 85.5414 1353.18 88.0729C1354.9 90.6044 1357.5 92.8792 1361 94.8974ZM1373.85 87.4779C1372.21 86.533 1371.03 85.5005 1370.3 84.3806C1369.6 83.249 1369.34 82.0766 1369.55 80.8633C1369.75 79.6501 1370.4 78.4368 1371.49 77.2236C1372.58 75.987 1374.11 74.7971 1376.09 73.6538C1378.07 72.5105 1380.13 71.6298 1382.25 71.0115C1384.37 70.3698 1386.48 69.9907 1388.58 69.874C1390.68 69.7574 1392.7 69.909 1394.64 70.329C1396.6 70.7373 1398.4 71.4139 1400.04 72.3589C1401.68 73.3038 1402.85 74.3421 1403.56 75.4737C1404.28 76.5936 1404.55 77.7602 1404.34 78.9734C1404.14 80.1867 1403.5 81.4116 1402.4 82.6482C1401.31 83.8615 1399.78 85.0397 1397.8 86.183C1395.82 87.3262 1393.77 88.2187 1391.64 88.8603C1389.52 89.4786 1387.41 89.8461 1385.31 89.9627C1383.21 90.0794 1381.18 89.9336 1379.22 89.5253C1377.28 89.1053 1375.49 88.4228 1373.85 87.4779ZM1308.74 64.7275C1315.37 68.5539 1321.95 70.5487 1328.5 70.7121C1335.07 70.8637 1341.41 69.1722 1347.54 65.6374L1379.91 46.9486L1366.57 39.2491L1338.2 55.6281C1334.6 57.7046 1331.62 58.8537 1329.26 59.0753C1326.89 59.297 1324.42 58.6612 1321.83 57.168C1319.25 55.6747 1318.14 54.2456 1318.53 52.8807C1318.91 51.5158 1320.9 49.7951 1324.5 47.7186L1352.87 31.3396L1339.53 23.6401L1307.16 42.3289C1301.04 45.8637 1298.11 49.5268 1298.37 53.3182C1298.63 57.0863 1302.09 60.8894 1308.74 64.7275ZM1265.42 39.7208C1267.56 40.9574 1269.79 42.0423 1272.09 42.9756C1274.37 43.9205 1276.64 44.7138 1278.88 45.3554C1281.1 45.9854 1283.2 46.487 1285.18 46.8603C1287.19 47.222 1288.95 47.4494 1290.49 47.5428L1295.22 37.1834C1293.72 37.0201 1292.17 36.7985 1290.55 36.5185C1288.91 36.2268 1287.3 35.8769 1285.7 35.4686C1284.1 35.0602 1282.6 34.5994 1281.18 34.0861C1279.75 33.5612 1278.49 32.9837 1277.39 32.3538C1276.38 31.7705 1275.66 31.2105 1275.21 30.6739C1274.77 30.1372 1274.62 29.6181 1274.76 29.1165C1274.92 28.6032 1275.38 28.1249 1276.15 27.6816C1276.92 27.2383 1277.78 26.9641 1278.73 26.8591C1279.68 26.7308 1280.83 26.7425 1282.18 26.8941C1283.54 27.0458 1285.19 27.3141 1287.15 27.6991C1289.11 28.084 1291.48 28.5623 1294.25 29.134C1296.37 29.5656 1298.45 29.8689 1300.49 30.0439C1302.53 30.1956 1304.5 30.2014 1306.4 30.0614C1308.28 29.9097 1310.07 29.6006 1311.77 29.134C1313.44 28.6557 1314.99 28.0082 1316.41 27.1916C1318.39 26.0483 1319.88 24.7068 1320.89 23.1669C1321.92 21.6153 1322.41 19.9704 1322.35 18.2322C1322.29 16.494 1321.62 14.7557 1320.35 13.0175C1319.05 11.2676 1317.08 9.62857 1314.44 8.10034C1312.74 7.1204 1310.76 6.18713 1308.49 5.30052C1306.21 4.40225 1303.85 3.62063 1301.4 2.95567C1298.96 2.29072 1296.63 1.81241 1294.43 1.52077L1288.97 10.7602C1290.63 11.0168 1292.26 11.361 1293.85 11.7926C1295.47 12.2126 1296.97 12.6909 1298.34 13.2275C1299.73 13.7525 1300.95 14.3124 1301.98 14.9074C1302.97 15.479 1303.69 16.039 1304.16 16.5873C1304.64 17.1239 1304.85 17.6372 1304.77 18.1272C1304.71 18.6055 1304.33 19.043 1303.64 19.4396C1303.2 19.6962 1302.71 19.8712 1302.19 19.9646C1301.66 20.0346 1301.05 20.0287 1300.34 19.9471C1299.61 19.8537 1298.72 19.6904 1297.67 19.4571C1296.62 19.2238 1295.34 18.938 1293.82 18.5997C1290.06 17.7597 1286.67 17.0831 1283.64 16.5698C1280.61 16.0565 1277.83 15.7823 1275.3 15.7473C1272.78 15.689 1270.41 15.9223 1268.21 16.4473C1266.01 16.9723 1263.86 17.8414 1261.75 19.0546C1258.4 20.9912 1256.33 23.1202 1255.54 25.4417C1254.73 27.7516 1255.17 30.1256 1256.84 32.5637C1258.52 35.0019 1261.38 37.3876 1265.42 39.7208ZM1245.68 27.2034L1275.32 -13.429L1262.96 -20.5685L1192.57 -3.45465L1206.94 4.83981L1218.25 1.77751L1236.62 12.3818L1231.31 18.9089L1245.68 27.2034ZM1243.77 3.00243L1234.49 -2.35222L1251.01 -6.53445L1243.77 3.00243ZM1187.88 -6.1656L1237.89 -35.0387L1224.55 -42.7382L1178.72 -36.9986L1206.61 -53.0975L1193.27 -60.797L1143.26 -31.9239L1156.6 -24.2244L1202.43 -29.9641L1174.54 -13.8651L1187.88 -6.1656ZM1131.4 -38.7709L1181.41 -67.644L1166.01 -76.5334C1162.46 -78.5866 1158.52 -80.1265 1154.19 -81.1531C1149.87 -82.1797 1145.42 -82.693 1140.86 -82.693C1136.27 -82.7047 1131.81 -82.1972 1127.49 -81.1706C1123.16 -80.1674 1119.24 -78.6508 1115.73 -76.6209C1112.21 -74.5911 1109.57 -72.3337 1107.82 -69.8489C1106.06 -67.364 1105.2 -64.8034 1105.24 -62.1669C1105.26 -59.542 1106.17 -56.9755 1107.97 -54.4674C1109.77 -51.9825 1112.44 -49.7135 1116 -47.6603L1131.4 -38.7709ZM1130 -53.3649L1129.52 -53.6449C1127.7 -54.6949 1126.36 -55.8323 1125.49 -57.0572C1124.62 -58.3055 1124.21 -59.577 1124.27 -60.872C1124.34 -62.1902 1124.86 -63.4851 1125.85 -64.7567C1126.84 -66.0283 1128.3 -67.2182 1130.22 -68.3265C1132.12 -69.4231 1134.17 -70.2572 1136.37 -70.8288C1138.57 -71.4004 1140.81 -71.7038 1143.1 -71.7387C1145.36 -71.7854 1147.56 -71.5521 1149.71 -71.0388C1151.85 -70.5488 1153.83 -69.7789 1155.65 -68.7289L1156.13 -68.449L1130 -53.3649ZM1069.94 -73.1332C1072.08 -71.8966 1074.3 -70.8117 1076.6 -69.8784C1078.89 -68.9335 1081.15 -68.1402 1083.39 -67.4986C1085.62 -66.8686 1087.72 -66.367 1089.7 -65.9937C1091.7 -65.632 1093.47 -65.4045 1095 -65.3112L1099.73 -75.6705C1098.24 -75.8338 1096.68 -76.0555 1095.06 -76.3355C1093.43 -76.6271 1091.81 -76.9771 1090.21 -77.3854C1088.62 -77.7937 1087.11 -78.2545 1085.7 -78.7678C1084.26 -79.2928 1083 -79.8702 1081.91 -80.5002C1080.9 -81.0835 1080.17 -81.6435 1079.73 -82.1801C1079.28 -82.7167 1079.13 -83.2359 1079.27 -83.7375C1079.43 -84.2508 1079.9 -84.7291 1080.67 -85.1724C1081.43 -85.6157 1082.29 -85.8899 1083.24 -85.9948C1084.19 -86.1232 1085.34 -86.1115 1086.7 -85.9599C1088.05 -85.8082 1089.71 -85.5399 1091.67 -85.1549C1093.63 -84.7699 1095.99 -84.2916 1098.76 -83.72C1100.88 -83.2884 1102.97 -82.985 1105.01 -82.8101C1107.05 -82.6584 1109.02 -82.6526 1110.92 -82.7926C1112.8 -82.9442 1114.58 -83.2534 1116.28 -83.72C1117.96 -84.1983 1119.51 -84.8458 1120.92 -85.6624C1122.9 -86.8056 1124.4 -88.1472 1125.41 -89.6871C1126.44 -91.2387 1126.92 -92.8836 1126.86 -94.6218C1126.8 -96.36 1126.13 -98.0982 1124.86 -99.8364C1123.57 -101.586 1121.6 -103.225 1118.95 -104.754C1117.25 -105.734 1115.27 -106.667 1113.01 -107.553C1110.72 -108.452 1108.36 -109.233 1105.92 -109.898C1103.47 -110.563 1101.15 -111.042 1098.94 -111.333L1093.49 -102.094C1095.14 -101.837 1096.77 -101.493 1098.37 -101.061C1099.98 -100.641 1101.48 -100.163 1102.85 -99.6265C1104.25 -99.1015 1105.46 -98.5415 1106.49 -97.9466C1107.48 -97.3749 1108.21 -96.815 1108.67 -96.2667C1109.16 -95.73 1109.36 -95.2167 1109.28 -94.7268C1109.22 -94.2485 1108.85 -93.811 1108.16 -93.4144C1107.71 -93.1577 1107.23 -92.9827 1106.7 -92.8894C1106.18 -92.8194 1105.56 -92.8252 1104.85 -92.9069C1104.13 -93.0002 1103.24 -93.1635 1102.19 -93.3969C1101.14 -93.6302 1099.85 -93.916 1098.34 -94.2543C1094.58 -95.0943 1091.18 -95.7709 1088.15 -96.2842C1085.12 -96.7975 1082.34 -97.0716 1079.82 -97.1066C1077.29 -97.165 1074.93 -96.9316 1072.72 -96.4067C1070.52 -95.8817 1068.37 -95.0126 1066.27 -93.7993C1062.91 -91.8628 1060.84 -89.7338 1060.05 -87.4123C1059.25 -85.1024 1059.68 -82.7284 1061.36 -80.2902C1063.03 -77.852 1065.89 -75.4664 1069.94 -73.1332ZM1348.72 205.64C1351.71 207.37 1355.09 208.66 1358.85 209.51C1362.61 210.36 1366.49 210.77 1370.49 210.74C1374.51 210.7 1378.42 210.23 1382.23 209.33C1386.04 208.41 1389.49 207.06 1392.57 205.28C1395.66 203.5 1397.99 201.515 1399.56 199.325C1401.14 197.115 1401.95 194.856 1402.01 192.546C1402.07 190.226 1401.37 187.981 1399.9 185.811C1398.43 183.641 1396.19 181.691 1393.2 179.962C1390.2 178.232 1386.82 176.942 1383.06 176.092C1379.31 175.242 1375.42 174.837 1371.4 174.877C1367.4 174.907 1363.49 175.382 1359.68 176.302C1355.87 177.202 1352.42 178.542 1349.34 180.322C1346.26 182.101 1343.93 184.096 1342.35 186.306C1340.78 188.496 1339.95 190.751 1339.88 193.071C1339.83 195.381 1340.54 197.62 1342.01 199.79C1343.49 201.96 1345.72 203.91 1348.72 205.64ZM1359.73 199.28C1358.33 198.47 1357.32 197.585 1356.69 196.625C1356.09 195.656 1355.87 194.651 1356.04 193.611C1356.22 192.571 1356.77 191.531 1357.71 190.491C1358.64 189.431 1359.96 188.411 1361.66 187.431C1363.35 186.451 1365.11 185.696 1366.93 185.166C1368.75 184.616 1370.56 184.291 1372.36 184.191C1374.16 184.091 1375.89 184.221 1377.56 184.581C1379.24 184.931 1380.78 185.511 1382.18 186.321C1383.58 187.131 1384.59 188.021 1385.2 188.991C1385.82 189.951 1386.04 190.951 1385.87 191.991C1385.7 193.031 1385.14 194.081 1384.21 195.141C1383.27 196.181 1381.96 197.19 1380.26 198.17C1378.56 199.15 1376.8 199.915 1374.98 200.465C1373.17 200.995 1371.36 201.31 1369.55 201.41C1367.75 201.51 1366.01 201.385 1364.33 201.035C1362.67 200.675 1361.14 200.09 1359.73 199.28ZM1321.25 188.824L1364.12 164.076L1338.45 149.257L1328.42 155.047L1345 164.616V161.916L1333.98 168.276L1338.66 168.276L1323.23 159.366L1313.2 165.156L1328.63 174.065V171.366L1309.82 182.225L1321.25 188.824ZM1245.94 147.026C1255.88 152.766 1265.76 155.758 1275.58 156.003C1285.44 156.231 1294.95 153.693 1304.14 148.391L1352.7 120.358L1332.69 108.809L1290.13 133.377C1284.74 136.492 1280.27 138.216 1276.72 138.548C1273.17 138.881 1269.46 137.927 1265.58 135.687C1261.7 133.447 1260.05 131.304 1260.63 129.256C1261.2 127.209 1264.19 124.628 1269.58 121.513L1312.14 96.9445L1292.13 85.3953L1243.58 113.428C1234.39 118.731 1230 124.225 1230.39 129.912C1230.78 135.564 1235.97 141.269 1245.94 147.026ZM1180.96 109.516C1184.18 111.371 1187.51 112.998 1190.97 114.398C1194.39 115.816 1197.79 117.006 1201.15 117.968C1204.49 118.913 1207.64 119.666 1210.61 120.226C1213.61 120.768 1216.26 121.109 1218.57 121.249L1225.66 105.71C1223.42 105.465 1221.08 105.133 1218.66 104.713C1216.2 104.275 1213.78 103.75 1211.38 103.138C1208.99 102.525 1206.73 101.834 1204.61 101.064C1202.46 100.277 1200.56 99.4106 1198.92 98.4657C1197.41 97.5907 1196.32 96.7508 1195.65 95.9459C1194.98 95.1409 1194.76 94.3622 1194.97 93.6098C1195.21 92.8398 1195.91 92.1224 1197.06 91.4574C1198.21 90.7924 1199.5 90.3812 1200.92 90.2237C1202.35 90.0312 1204.08 90.0487 1206.11 90.2762C1208.14 90.5037 1210.62 90.9062 1213.56 91.4836C1216.51 92.0611 1220.05 92.7786 1224.2 93.636C1227.39 94.2835 1230.51 94.7384 1233.57 95.0009C1236.63 95.2284 1239.59 95.2372 1242.44 95.0272C1245.26 94.7997 1247.94 94.336 1250.48 93.636C1253 92.9186 1255.32 91.9474 1257.44 90.7224C1260.41 89.0076 1262.65 86.9952 1264.17 84.6853C1265.72 82.358 1266.44 79.8907 1266.35 77.2833C1266.26 74.676 1265.26 72.0687 1263.35 69.4613C1261.41 66.8365 1258.46 64.3779 1254.49 62.0856C1251.94 60.6157 1248.97 59.2158 1245.57 57.8858C1242.15 56.5384 1238.6 55.366 1234.93 54.3686C1231.27 53.3711 1227.78 52.6537 1224.48 52.2162L1216.29 66.0753C1218.78 66.4603 1221.22 66.9765 1223.61 67.624C1226.04 68.2539 1228.28 68.9714 1230.34 69.7763C1232.43 70.5638 1234.25 71.4037 1235.8 72.2961C1237.28 73.1536 1238.37 73.9935 1239.07 74.816C1239.8 75.6209 1240.1 76.3909 1239.98 77.1258C1239.89 77.8433 1239.33 78.4995 1238.3 79.0945C1237.63 79.4794 1236.9 79.7419 1236.12 79.8819C1235.33 79.9869 1234.4 79.9781 1233.34 79.8557C1232.25 79.7157 1230.92 79.4707 1229.34 79.1207C1227.77 78.7707 1225.84 78.342 1223.57 77.8345C1217.93 76.5746 1212.84 75.5597 1208.29 74.7897C1203.74 74.0198 1199.58 73.6086 1195.79 73.5561C1192 73.4686 1188.45 73.8185 1185.15 74.606C1181.84 75.3934 1178.62 76.6971 1175.46 78.517C1170.43 81.4218 1167.32 84.6153 1166.14 88.0976C1164.93 91.5624 1165.58 95.1234 1168.1 98.7807C1170.61 102.438 1174.9 106.016 1180.96 109.516ZM1140.57 84.5192L1215.6 41.2096L1171.22 15.5912L1153.67 25.7231L1178.04 39.7922L1166.95 46.1967L1143.67 32.7576L1126.12 42.8895L1149.4 56.3286L1138.12 62.8382L1113.75 48.7691L1096.2 58.9009L1140.57 84.5192ZM1079.66 49.3506L1154.68 6.04096L1125.03 -11.0729C1119.76 -14.1177 1114.23 -16.2263 1108.44 -17.3988C1102.68 -18.5887 1096.95 -18.7812 1091.25 -17.9762C1085.58 -17.1888 1080.23 -15.3426 1075.2 -12.4378C1071.62 -10.373 1068.91 -8.15936 1067.06 -5.79702C1065.24 -3.45217 1064.3 -1.01983 1064.24 1.50001C1064.18 3.98484 1065.05 6.51343 1066.83 9.08576L1014.09 11.5006L1039.46 26.1471L1085.61 22.7611L1085.66 22.7874L1059.65 37.8014L1079.66 49.3506ZM1102.21 13.233L1099.12 11.4481C1096.57 9.9782 1094.75 8.57829 1093.66 7.24838C1092.54 5.90097 1092.16 4.6323 1092.52 3.44238C1092.89 2.21746 1093.96 1.08878 1095.75 0.0563493C1098.51 -1.53605 1101.57 -2.166 1104.94 -1.83353C1108.3 -1.53605 1111.88 -0.293628 1115.67 1.89373L1118.76 3.67861L1102.21 13.233ZM986.13 -2.96179C989.343 -1.10691 992.677 0.520482 996.133 1.92039C999.558 3.3378 1002.95 4.52772 1006.32 5.49016C1009.65 6.4351 1012.8 7.18755 1015.77 7.74751C1018.78 8.28997 1021.43 8.6312 1023.73 8.77119L1030.82 -6.76779C1028.58 -7.01278 1026.25 -7.34526 1023.82 -7.76523C1021.37 -8.2027 1018.94 -8.72766 1016.55 -9.34013C1014.15 -9.95259 1011.89 -10.6438 1009.77 -11.4137C1007.62 -12.2012 1005.73 -13.0674 1004.09 -14.0123C1002.57 -14.8873 1001.48 -15.7272 1000.82 -16.5322C1000.15 -17.3371 999.922 -18.1158 1000.13 -18.8683C1000.38 -19.6382 1001.07 -20.3557 1002.23 -21.0206C1003.38 -21.6856 1004.67 -22.0968 1006.09 -22.2543C1007.51 -22.4468 1009.24 -22.4293 1011.27 -22.2018C1013.3 -21.9743 1015.79 -21.5718 1018.73 -20.9944C1021.67 -20.4169 1025.22 -19.6994 1029.37 -18.842C1032.55 -18.1945 1035.67 -17.7396 1038.74 -17.4771C1041.8 -17.2496 1044.75 -17.2409 1047.6 -17.4508C1050.42 -17.6783 1053.1 -18.1421 1055.65 -18.842C1058.17 -19.5595 1060.48 -20.5306 1062.61 -21.7556C1065.58 -23.4705 1067.82 -25.4828 1069.34 -27.7927C1070.88 -30.12 1071.61 -32.5874 1071.52 -35.1947C1071.43 -37.802 1070.43 -40.4093 1068.52 -43.0167C1066.58 -45.6415 1063.62 -48.1001 1059.65 -50.3924C1057.1 -51.8624 1054.13 -53.2623 1050.74 -54.5922C1047.31 -55.9396 1043.77 -57.112 1040.1 -58.1094C1036.43 -59.1069 1032.95 -59.8243 1029.64 -60.2618L1021.46 -46.4027C1023.94 -46.0177 1026.38 -45.5015 1028.78 -44.8541C1031.2 -44.2241 1033.45 -43.5066 1035.51 -42.7017C1037.6 -41.9143 1039.42 -41.0743 1040.96 -40.1819C1042.45 -39.3244 1043.54 -38.4845 1044.24 -37.662C1044.96 -36.8571 1045.27 -36.0871 1045.15 -35.3522C1045.06 -34.6347 1044.5 -33.9785 1043.46 -33.3836C1042.8 -32.9986 1042.07 -32.7361 1041.28 -32.5961C1040.49 -32.4911 1039.57 -32.4999 1038.51 -32.6224C1037.42 -32.7623 1036.08 -33.0073 1034.51 -33.3573C1032.93 -33.7073 1031.01 -34.136 1028.73 -34.6435C1023.1 -35.9034 1018 -36.9183 1013.46 -37.6883C1008.91 -38.4582 1004.74 -38.8694 1000.95 -38.9219C997.164 -39.0094 993.617 -38.6595 990.313 -37.872C987.009 -37.0846 983.781 -35.7809 980.629 -33.961C975.597 -31.0562 972.49 -27.8627 971.308 -24.3804C970.095 -20.9156 970.747 -17.3546 973.263 -13.6973C975.779 -10.0401 980.068 -6.46156 986.13 -2.96179Z" fill="#ECFCFF" fill-opacity="0.15"/>
</g>
<defs>
<linearGradient id="paint0_linear_625_384" x1="1130.32" y1="121.663" x2="713.462" y2="324.586" gradientUnits="userSpaceOnUse">
<stop stop-color="#ECFCFF"/>
<stop offset="1" stop-color="#ECFCFF" stop-opacity="0"/>
</linearGradient>
<linearGradient id="paint1_linear_625_384" x1="1736.74" y1="244.29" x2="1547.8" y2="571.567" gradientUnits="userSpaceOnUse">
<stop offset="0.346875" stop-color="white"/>
<stop offset="1" stop-color="#ECFCFF" stop-opacity="0"/>
</linearGradient>
<clipPath id="clip0_625_384">
<rect width="1440" height="1024" fill="white"/>
</clipPath>
</defs>
</svg>
